<?xml version="1.0" encoding="utf-8"?>
<!-- Generator: Adobe Illustrator 16.0.0, SVG Export Plug-In . SVG Version: 6.00 Build 0)  -->
<!DOCTYPE svg PUBLIC "-//W3C//DTD SVG 1.1//EN" "http://www.w3.org/Graphics/SVG/1.1/DTD/svg11.dtd">
<svg version="1.1" id="Layer_1" xmlns="http://www.w3.org/2000/svg" xmlns:xlink="http://www.w3.org/1999/xlink" x="0px" y="0px"
	 width="65.965px" height="74.372px" viewBox="0 0 65.965 74.372" enable-background="new 0 0 65.965 74.372" xml:space="preserve">
<g>
	<g>
		<g>
			<g>
				<path fill="none" stroke="#B4782A" stroke-width="2" stroke-miterlimit="10" d="M4.239,35.246
					c-1.84-0.653-2.979,0.285-2.979,0.285s0.891,1.718,2.076,1.875"/>
				<path fill="none" stroke="#B4782A" stroke-width="2" stroke-miterlimit="10" d="M3.248,37.328
					c-0.843,0.845-1.085,2.183-1.085,2.183s4.099-0.078,4.825-2.65"/>
				<path fill="none" stroke="#B4782A" stroke-width="2" stroke-miterlimit="10" d="M4.123,35.167
					c-0.992-0.873-0.25-2.748-0.25-2.748s3.727,2.122,3.065,4.712"/>
			</g>
			<g>
				<path fill="none" stroke="#B4782A" stroke-width="2" stroke-miterlimit="10" d="M14.507,38.176
					c-2.097-1.148-3.655-0.237-3.655-0.237s0.741,2.25,2.142,2.67"/>
				<path fill="none" stroke="#B4782A" stroke-width="2" stroke-miterlimit="10" d="M12.902,40.499
					c-1.184,0.856-1.736,2.423-1.736,2.423s4.966,0.707,6.345-2.257"/>
				<path fill="none" stroke="#B4782A" stroke-width="2" stroke-miterlimit="10" d="M14.382,38.058
					c-1.028-1.247,0.233-3.367,0.233-3.367s4.088,3.291,2.782,6.29"/>
			</g>
			<g>
				<path fill="none" stroke="#B4782A" stroke-width="2" stroke-miterlimit="10" d="M24.775,44.584
					c-2.211-1.847-4.266-1.133-4.266-1.133s0.351,2.832,1.91,3.657"/>
				<path fill="none" stroke="#B4782A" stroke-width="2" stroke-miterlimit="10" d="M22.337,46.956
					c-1.599,0.736-2.618,2.461-2.618,2.461s5.707,1.994,8.029-1.19"/>
				<path fill="none" stroke="#B4782A" stroke-width="2" stroke-miterlimit="10" d="M24.655,44.416
					c-0.925-1.715,1.061-3.927,1.061-3.927s4.067,4.844,1.825,8.085"/>
			</g>
			<g>
				<path fill="none" stroke="#B4782A" stroke-width="2" stroke-miterlimit="10" d="M32.389,55.322
					c-1.046-2.683-3.191-3.049-3.191-3.049s-1.058,2.651-0.09,4.125"/>
				<path fill="none" stroke="#B4782A" stroke-width="2" stroke-miterlimit="10" d="M29.109,56.225
					c-1.756-0.126-3.48,0.894-3.48,0.894s4.038,4.498,7.607,2.828"/>
				<path fill="none" stroke="#B4782A" stroke-width="2" stroke-miterlimit="10" d="M32.365,55.116
					c0.016-1.947,2.824-2.929,2.824-2.929s1.142,5.779-1.949,7.763c-0.112,0.072-0.229,0.139-0.353,0.2"/>
			</g>
			<path fill="none" stroke="#B4782A" stroke-width="2" stroke-miterlimit="10" d="M27.078,48.938
				c1.022,1.242,1.582,2.02,2.461,3.526"/>
			<path fill="none" stroke="#B4782A" stroke-width="2" stroke-miterlimit="10" d="M17.4,40.977c1.213,0.67,2.464,1.452,3.711,2.36"
				/>
			<path fill="none" stroke="#B4782A" stroke-width="2" stroke-miterlimit="10" d="M6.938,37.131c0,0,1.524,0.229,3.858,0.984"/>
		</g>
		<g>
			<g>
				<path fill="none" stroke="#B4782A" stroke-width="2" stroke-miterlimit="10" d="M26.757,4.973
					c-1.653-2.008-3.596-1.718-3.596-1.718s-0.162,2.573,1.083,3.565"/>
				<path fill="none" stroke="#B4782A" stroke-width="2" stroke-miterlimit="10" d="M24.197,6.67
					c-1.542,0.386-2.736,1.748-2.736,1.748s4.732,2.724,7.326,0.286"/>
				<path fill="none" stroke="#B4782A" stroke-width="2" stroke-miterlimit="10" d="M26.679,4.803
					c-0.533-1.676,1.599-3.309,1.599-3.309s2.799,4.98,0.266,7.482"/>
			</g>
			<g>
				<path fill="none" stroke="#B4782A" stroke-width="2" stroke-miterlimit="10" d="M36.468,15.362
					c-1.604-2.749-4.01-2.778-4.009-2.778c0,0-0.698,3.075,0.612,4.518"/>
				<path fill="none" stroke="#B4782A" stroke-width="2" stroke-miterlimit="10" d="M33.043,16.912
					c-1.939,0.166-3.646,1.575-3.646,1.575s5.184,4.214,8.792,1.776"/>
				<path fill="none" stroke="#B4782A" stroke-width="2" stroke-miterlimit="10" d="M36.405,15.142
					c-0.317-2.129,2.577-3.684,2.577-3.684s2.408,6.561-1.139,9.088"/>
			</g>
			<g>
				<path fill="none" stroke="#B4782A" stroke-width="2" stroke-miterlimit="10" d="M43.793,29.722
					c-1.256-3.625-4.093-4.219-4.093-4.219s-1.542,3.474-0.328,5.484"/>
				<path fill="none" stroke="#B4782A" stroke-width="2" stroke-miterlimit="10" d="M39.382,30.756
					c-2.331-0.256-4.676,1.014-4.676,1.014s5.146,6.191,9.981,4.149"/>
				<path fill="none" stroke="#B4782A" stroke-width="2" stroke-miterlimit="10" d="M43.771,29.447
					c0.121-2.592,3.906-3.756,3.906-3.756s1.318,8.321-3.466,10.482"/>
			</g>
			<g>
				<path fill="none" stroke="#B4782A" stroke-width="2" stroke-miterlimit="10" d="M45.117,47.203
					c0.647-3.781-1.551-5.67-1.551-5.67s-3.026,2.3-2.932,4.646"/>
				<path fill="none" stroke="#B4782A" stroke-width="2" stroke-miterlimit="10" d="M40.755,45.982
					c-1.918-1.349-4.586-1.367-4.586-1.367s1.524,7.906,6.744,8.449"/>
				<path fill="none" stroke="#B4782A" stroke-width="2" stroke-miterlimit="10" d="M45.231,46.951
					c1.355-2.212,5.232-1.406,5.232-1.406s-2.661,7.38-7.549,7.525c-0.177,0.005-0.357,0.001-0.54-0.013"/>
			</g>
			<path fill="none" stroke="#B4782A" stroke-width="2" stroke-miterlimit="10" d="M33.017,73.878
				c3.571-6.295,8.99-15.348,9.896-20.814"/>
			<path fill="none" stroke="#B4782A" stroke-width="2" stroke-miterlimit="10" d="M43.437,36.271
				c0.314,2.119,0.419,3.391,0.389,5.713"/>
			<path fill="none" stroke="#B4782A" stroke-width="2" stroke-miterlimit="10" d="M37.85,20.543
				c0.924,1.598,1.816,3.347,2.617,5.241"/>
			<path fill="none" stroke="#B4782A" stroke-width="2" stroke-miterlimit="10" d="M28.544,8.977c0,0,1.582,1.308,3.729,3.771"/>
		</g>
		<g>
			<g>
				<path fill="none" stroke="#B4782A" stroke-width="2" stroke-miterlimit="10" d="M61.136,30.736c0.166-2.083-1.12-3-1.12-3
					s-1.528,1.397-1.362,2.666"/>
				<path fill="none" stroke="#B4782A" stroke-width="2" stroke-miterlimit="10" d="M58.709,30.289
					c-1.108-0.637-2.558-0.517-2.558-0.517s1.217,4.216,4.077,4.254"/>
				<path fill="none" stroke="#B4782A" stroke-width="2" stroke-miterlimit="10" d="M61.186,30.594
					c0.627-1.267,2.771-1.02,2.771-1.02s-1.161,4.441-4.021,4.474"/>
			</g>
			<g>
				<path fill="none" stroke="#B4782A" stroke-width="2" stroke-miterlimit="10" d="M60.952,42.163
					c0.607-2.485-0.767-3.844-0.767-3.843c0,0-2.12,1.388-2.167,2.953"/>
				<path fill="none" stroke="#B4782A" stroke-width="2" stroke-miterlimit="10" d="M58.107,41.147
					c-1.213-0.986-2.986-1.124-2.986-1.124s0.645,5.329,4.092,5.934"/>
				<path fill="none" stroke="#B4782A" stroke-width="2" stroke-miterlimit="10" d="M61.04,42c1.004-1.408,3.545-0.691,3.545-0.691
					s-2.269,5.137-5.73,4.619"/>
			</g>
			<g>
				<path fill="none" stroke="#B4782A" stroke-width="2" stroke-miterlimit="10" d="M57.175,54.553
					c1.296-2.797-0.012-4.724-0.012-4.724s-2.83,1.147-3.251,2.987"/>
				<path fill="none" stroke="#B4782A" stroke-width="2" stroke-miterlimit="10" d="M54.047,52.69
					c-1.206-1.449-3.271-2.024-3.271-2.024s-0.479,6.452,3.457,7.97"/>
				<path fill="none" stroke="#B4782A" stroke-width="2" stroke-miterlimit="10" d="M57.315,54.382
					c1.517-1.431,4.354,0.008,4.354,0.008s-3.881,5.546-7.853,4.126"/>
			</g>
			<g>
				<path fill="none" stroke="#B4782A" stroke-width="2" stroke-miterlimit="10" d="M48.185,65.399
					c2.483-1.825,2.267-4.144,2.267-4.144c0,0-3.033-0.357-4.289,1.05"/>
				<path fill="none" stroke="#B4782A" stroke-width="2" stroke-miterlimit="10" d="M46.343,62.259
					c-0.356-1.85-1.889-3.35-1.889-3.35s-3.53,5.421-0.815,8.649"/>
				<path fill="none" stroke="#B4782A" stroke-width="2" stroke-miterlimit="10" d="M48.391,65.318
					c2.018-0.523,3.811,2.107,3.811,2.107s-5.658,2.782-8.565,0.137c-0.105-0.096-0.207-0.198-0.305-0.308"/>
			</g>
			<path fill="none" stroke="#B4782A" stroke-width="2" stroke-miterlimit="10" d="M53.313,58.141c-1,1.4-1.65,2.194-2.963,3.52"/>
			<path fill="none" stroke="#B4782A" stroke-width="2" stroke-miterlimit="10" d="M58.86,45.929
				c-0.357,1.44-0.818,2.95-1.411,4.492"/>
			<path fill="none" stroke="#B4782A" stroke-width="2" stroke-miterlimit="10" d="M59.936,34.048c0,0.001,0.185,1.639,0.052,4.261"
				/>
		</g>
	</g>
</g>
</svg>
