<?xml version="1.0" encoding="utf-8"?>
<!-- Generator: Adobe Illustrator 16.0.0, SVG Export Plug-In . SVG Version: 6.00 Build 0)  -->
<!DOCTYPE svg PUBLIC "-//W3C//DTD SVG 1.1//EN" "http://www.w3.org/Graphics/SVG/1.1/DTD/svg11.dtd">
<svg version="1.1" id="Layer_1" xmlns="http://www.w3.org/2000/svg" xmlns:xlink="http://www.w3.org/1999/xlink" x="0px" y="0px"
	 width="64.645px" height="73.378px" viewBox="0 0 64.645 73.378" enable-background="new 0 0 64.645 73.378" xml:space="preserve">
<g>
	<g>
		<g>
			<polygon fill="none" stroke="#CCCCCC" stroke-miterlimit="10" points="-528.138,10.073 -536.358,19.822 -548.911,17.577 
				-553.243,5.584 -545.023,-4.164 -532.471,-1.92 			"/>
		</g>
		<g>
			<polygon fill="none" stroke="#CCCCCC" stroke-miterlimit="10" points="-509.196,26.625 -517.417,36.374 -529.97,34.129 
				-534.303,22.136 -526.082,12.387 -513.529,14.632 			"/>
		</g>
		<g>
			<polygon fill="none" stroke="#CCCCCC" stroke-miterlimit="10" points="-533.298,34.966 -541.519,44.714 -554.071,42.47 
				-558.404,30.478 -550.184,20.729 -537.631,22.973 			"/>
		</g>
	</g>
</g>
<g>
	<g>
		<g>
			<path fill="none" stroke="#FFFFFF" stroke-miterlimit="10" d="M3.609,34.499c-1.84-0.653-2.979,0.285-2.979,0.285
				s0.891,1.718,2.076,1.875"/>
			<path fill="none" stroke="#FFFFFF" stroke-miterlimit="10" d="M2.618,36.581c-0.843,0.845-1.085,2.183-1.085,2.183
				s4.099-0.078,4.825-2.65"/>
			<path fill="none" stroke="#FFFFFF" stroke-miterlimit="10" d="M3.493,34.42c-0.992-0.873-0.25-2.748-0.25-2.748
				s3.727,2.122,3.065,4.712"/>
		</g>
		<g>
			<path fill="none" stroke="#FFFFFF" stroke-miterlimit="10" d="M13.877,37.429c-2.097-1.148-3.655-0.237-3.655-0.237
				s0.741,2.25,2.142,2.67"/>
			<path fill="none" stroke="#FFFFFF" stroke-miterlimit="10" d="M12.272,39.751c-1.184,0.856-1.736,2.423-1.736,2.423
				s4.966,0.707,6.345-2.257"/>
			<path fill="none" stroke="#FFFFFF" stroke-miterlimit="10" d="M13.752,37.311c-1.028-1.247,0.233-3.367,0.233-3.367
				s4.088,3.291,2.782,6.29"/>
		</g>
		<g>
			<path fill="none" stroke="#FFFFFF" stroke-miterlimit="10" d="M24.146,43.837c-2.211-1.847-4.266-1.133-4.266-1.133
				s0.351,2.832,1.91,3.657"/>
			<path fill="none" stroke="#FFFFFF" stroke-miterlimit="10" d="M21.707,46.209c-1.599,0.736-2.618,2.461-2.618,2.461
				s5.707,1.994,8.029-1.19"/>
			<path fill="none" stroke="#FFFFFF" stroke-miterlimit="10" d="M24.025,43.668c-0.925-1.715,1.061-3.927,1.061-3.927
				s4.067,4.844,1.825,8.085"/>
		</g>
		<g>
			<path fill="none" stroke="#FFFFFF" stroke-miterlimit="10" d="M31.759,54.575c-1.046-2.683-3.191-3.049-3.191-3.049
				s-1.058,2.651-0.09,4.125"/>
			<path fill="none" stroke="#FFFFFF" stroke-miterlimit="10" d="M28.479,55.478c-1.756-0.126-3.48,0.894-3.48,0.894
				s4.038,4.498,7.607,2.828"/>
			<path fill="none" stroke="#FFFFFF" stroke-miterlimit="10" d="M31.735,54.369c0.016-1.947,2.824-2.929,2.824-2.929
				s1.142,5.779-1.949,7.763c-0.112,0.072-0.229,0.139-0.353,0.2"/>
		</g>
		<path fill="none" stroke="#FFFFFF" stroke-miterlimit="10" d="M26.448,48.19c1.022,1.242,1.582,2.02,2.461,3.526"/>
		<path fill="none" stroke="#FFFFFF" stroke-miterlimit="10" d="M16.771,40.229c1.213,0.67,2.464,1.452,3.711,2.36"/>
		<path fill="none" stroke="#FFFFFF" stroke-miterlimit="10" d="M6.308,36.384c0,0,1.524,0.229,3.858,0.984"/>
	</g>
	<g>
		<g>
			<path fill="none" stroke="#FFFFFF" stroke-miterlimit="10" d="M26.127,4.226c-1.653-2.008-3.596-1.718-3.596-1.718
				s-0.162,2.573,1.083,3.565"/>
			<path fill="none" stroke="#FFFFFF" stroke-miterlimit="10" d="M23.567,5.923c-1.542,0.386-2.736,1.748-2.736,1.748
				s4.732,2.724,7.326,0.286"/>
			<path fill="none" stroke="#FFFFFF" stroke-miterlimit="10" d="M26.049,4.056c-0.533-1.676,1.599-3.309,1.599-3.309
				s2.799,4.98,0.266,7.482"/>
		</g>
		<g>
			<path fill="none" stroke="#FFFFFF" stroke-miterlimit="10" d="M35.838,14.615c-1.604-2.749-4.01-2.778-4.009-2.778
				c0,0-0.698,3.075,0.612,4.518"/>
			<path fill="none" stroke="#FFFFFF" stroke-miterlimit="10" d="M32.413,16.165c-1.939,0.166-3.646,1.575-3.646,1.575
				s5.184,4.214,8.792,1.776"/>
			<path fill="none" stroke="#FFFFFF" stroke-miterlimit="10" d="M35.775,14.395c-0.317-2.129,2.577-3.684,2.577-3.684
				s2.408,6.561-1.139,9.088"/>
		</g>
		<g>
			<path fill="none" stroke="#FFFFFF" stroke-miterlimit="10" d="M43.163,28.975c-1.256-3.625-4.093-4.219-4.093-4.219
				s-1.542,3.474-0.328,5.484"/>
			<path fill="none" stroke="#FFFFFF" stroke-miterlimit="10" d="M38.752,30.009c-2.331-0.256-4.676,1.014-4.676,1.014
				s5.146,6.191,9.981,4.149"/>
			<path fill="none" stroke="#FFFFFF" stroke-miterlimit="10" d="M43.142,28.7c0.121-2.592,3.906-3.756,3.906-3.756
				s1.318,8.321-3.466,10.482"/>
		</g>
		<g>
			<path fill="none" stroke="#FFFFFF" stroke-miterlimit="10" d="M44.487,46.456c0.647-3.781-1.551-5.67-1.551-5.67
				s-3.026,2.3-2.932,4.646"/>
			<path fill="none" stroke="#FFFFFF" stroke-miterlimit="10" d="M40.125,45.235c-1.918-1.349-4.586-1.367-4.586-1.367
				s1.524,7.906,6.744,8.449"/>
			<path fill="none" stroke="#FFFFFF" stroke-miterlimit="10" d="M44.602,46.204c1.355-2.212,5.232-1.406,5.232-1.406
				s-2.661,7.38-7.549,7.525c-0.177,0.005-0.357,0.001-0.54-0.013"/>
		</g>
		<path fill="none" stroke="#FFFFFF" stroke-miterlimit="10" d="M32.387,73.131c3.571-6.295,8.99-15.348,9.896-20.814"/>
		<path fill="none" stroke="#FFFFFF" stroke-miterlimit="10" d="M42.807,35.524c0.314,2.119,0.419,3.391,0.389,5.713"/>
		<path fill="none" stroke="#FFFFFF" stroke-miterlimit="10" d="M37.22,19.796c0.924,1.598,1.816,3.347,2.617,5.241"/>
		<path fill="none" stroke="#FFFFFF" stroke-miterlimit="10" d="M27.914,8.229c0,0,1.582,1.308,3.729,3.771"/>
	</g>
	<g>
		<g>
			<path fill="none" stroke="#FFFFFF" stroke-miterlimit="10" d="M60.506,29.989c0.166-2.083-1.12-3-1.12-3
				s-1.528,1.397-1.362,2.666"/>
			<path fill="none" stroke="#FFFFFF" stroke-miterlimit="10" d="M58.079,29.542c-1.108-0.637-2.558-0.517-2.558-0.517
				s1.217,4.216,4.077,4.254"/>
			<path fill="none" stroke="#FFFFFF" stroke-miterlimit="10" d="M60.556,29.847c0.627-1.267,2.771-1.02,2.771-1.02
				s-1.161,4.441-4.021,4.474"/>
		</g>
		<g>
			<path fill="none" stroke="#FFFFFF" stroke-miterlimit="10" d="M60.322,41.416c0.607-2.485-0.767-3.844-0.767-3.843
				c0,0-2.12,1.388-2.167,2.953"/>
			<path fill="none" stroke="#FFFFFF" stroke-miterlimit="10" d="M57.478,40.4c-1.213-0.986-2.986-1.124-2.986-1.124
				s0.645,5.329,4.092,5.934"/>
			<path fill="none" stroke="#FFFFFF" stroke-miterlimit="10" d="M60.41,41.253c1.004-1.408,3.545-0.691,3.545-0.691
				s-2.269,5.137-5.73,4.619"/>
		</g>
		<g>
			<path fill="none" stroke="#FFFFFF" stroke-miterlimit="10" d="M56.545,53.806c1.296-2.797-0.012-4.724-0.012-4.724
				s-2.83,1.147-3.251,2.987"/>
			<path fill="none" stroke="#FFFFFF" stroke-miterlimit="10" d="M53.417,51.943c-1.206-1.449-3.271-2.024-3.271-2.024
				s-0.479,6.452,3.457,7.97"/>
			<path fill="none" stroke="#FFFFFF" stroke-miterlimit="10" d="M56.686,53.635c1.517-1.431,4.354,0.008,4.354,0.008
				s-3.881,5.546-7.853,4.126"/>
		</g>
		<g>
			<path fill="none" stroke="#FFFFFF" stroke-miterlimit="10" d="M47.555,64.652c2.483-1.825,2.267-4.144,2.267-4.144
				c0,0-3.033-0.357-4.289,1.05"/>
			<path fill="none" stroke="#FFFFFF" stroke-miterlimit="10" d="M45.713,61.512c-0.356-1.85-1.889-3.35-1.889-3.35
				s-3.53,5.421-0.815,8.649"/>
			<path fill="none" stroke="#FFFFFF" stroke-miterlimit="10" d="M47.761,64.571c2.018-0.523,3.811,2.107,3.811,2.107
				s-5.658,2.782-8.565,0.137c-0.105-0.096-0.207-0.198-0.305-0.308"/>
		</g>
		<path fill="none" stroke="#FFFFFF" stroke-miterlimit="10" d="M52.683,57.394c-1,1.4-1.65,2.194-2.963,3.52"/>
		<path fill="none" stroke="#FFFFFF" stroke-miterlimit="10" d="M58.23,45.182c-0.357,1.44-0.818,2.95-1.411,4.492"/>
		<path fill="none" stroke="#FFFFFF" stroke-miterlimit="10" d="M59.306,33.301c0,0.001,0.185,1.639,0.052,4.261"/>
	</g>
</g>
<g>
	<g>
		<circle fill="none" stroke="#CCCCCC" stroke-miterlimit="10" cx="-88.828" cy="64.019" r="22.499"/>
		<path fill="none" stroke="#CCCCCC" stroke-miterlimit="10" d="M-88.828,42.059c-5.658-14.82-20.747-16.167-20.747-16.167
			s-3.233,13.204,4.85,22.096"/>
		<path fill="none" stroke="#CCCCCC" stroke-miterlimit="10" d="M-109.002,40.847c-8.521-0.539-14.315,3.637-14.315,3.637
			s5.998,9.162,13.104,12.665"/>
	</g>
</g>
<g>
	<path fill-rule="evenodd" clip-rule="evenodd" fill="none" stroke="#CCCCCC" stroke-width="0.75" stroke-miterlimit="10" d="
		M-243.149-92.92c1.199,4.658,2.302,9.057,3.523,13.421c0.081,0.287,1.185,0.595,1.629,0.421c2.554-0.995,3.979-3.976,3.297-6.702
		c-0.796-3.182-1.587-6.368-2.469-9.527c-0.284-1.012-0.849-1.946-1.285-2.916c-1.082,0.684-2.373,1.183-3.187,2.103
		C-242.421-95.236-242.706-93.916-243.149-92.92z M-245.838-72.662c2.9-0.085,5.659-3.249,5.072-5.816
		c-0.95-4.153-2.08-8.264-3.101-12.401c-0.28-1.137-0.932-1.248-1.878-0.887c-1.926,0.732-3.894,3.712-3.434,5.771
		C-248.179-81.51-246.958-77.074-245.838-72.662z M-236.735-98.517c1.06,4.08,2.18,8.476,3.388,12.845
		c0.074,0.271,0.9,0.582,1.274,0.485c2.245-0.593,4.299-3.856,3.773-6.086c-0.943-4.01-2.01-7.99-3.007-11.987
		c-0.327-1.312-1.08-1.54-2.168-0.898C-235.492-102.972-236.574-101.201-236.735-98.517z M-255.461-79.595
		c0.671,2.593,1.262,5.704,2.335,8.64c0.459,1.258,1.885,2.191,2.964,3.169c0.233,0.211,1.165,0.13,1.265-0.071
		c0.713-1.43,2.006-3.044,1.786-4.38c-0.681-4.12-1.995-8.134-2.979-12.208c-0.34-1.407-1.121-1.514-2.139-0.929
		C-254.25-84.211-255.384-82.454-255.461-79.595z M-230.489-104.893c1.066,4.146,2.165,8.543,3.396,12.903
		c0.075,0.264,1.339,0.519,1.812,0.289c2.628-1.276,3.729-3.921,3.002-6.804c-0.325-1.286-0.634-2.576-0.959-3.861
		c-0.51-2.013-0.917-3.976-2.661-5.506c-2.378-2.087-3.467-1.885-4.324,1.248C-230.352-106.156-230.375-105.661-230.489-104.893z
		 M-221.808-104.152c-0.17,0.142-0.34,0.283-0.51,0.424c0.417,1.679,0.791,3.371,1.28,5.029c0.133,0.446,0.723,1.171,0.919,1.114
		c0.701-0.198,1.426-0.577,1.93-1.095c0.23-0.237,0.151-1.103-0.108-1.431C-219.402-101.509-220.627-102.813-221.808-104.152z
		 M-255.621-72.924c0.175-0.123,0.349-0.247,0.524-0.371c-0.45-1.735-0.861-3.483-1.378-5.2c-0.108-0.36-0.696-0.912-0.899-0.849
		c-0.752,0.233-1.518,0.595-2.102,1.108c-0.208,0.184-0.094,1.089,0.176,1.404C-258.136-75.476-256.857-74.218-255.621-72.924z"/>
	<path fill-rule="evenodd" clip-rule="evenodd" fill="none" stroke="#CCCCCC" stroke-width="0.75" stroke-miterlimit="10" d="
		M-243.149-92.92c0.443-0.996,0.729-2.316,1.509-3.2c0.813-0.92,2.104-1.419,3.187-2.103c0.437,0.97,1.001,1.904,1.285,2.916
		c0.881,3.159,1.673,6.345,2.469,9.527c0.682,2.726-0.743,5.707-3.297,6.702c-0.444,0.174-1.548-0.134-1.629-0.421
		C-240.848-83.863-241.95-88.262-243.149-92.92z"/>
	<path fill-rule="evenodd" clip-rule="evenodd" fill="none" stroke="#CCCCCC" stroke-width="0.75" stroke-miterlimit="10" d="
		M-245.838-72.662c-1.12-4.412-2.341-8.848-3.341-13.333c-0.46-2.06,1.508-5.039,3.434-5.771c0.946-0.36,1.598-0.25,1.878,0.887
		c1.021,4.137,2.151,8.248,3.101,12.401C-240.179-75.911-242.938-72.747-245.838-72.662z"/>
	<path fill-rule="evenodd" clip-rule="evenodd" fill="none" stroke="#CCCCCC" stroke-width="0.75" stroke-miterlimit="10" d="
		M-236.735-98.517c0.161-2.685,1.244-4.455,3.26-5.643c1.088-0.642,1.841-0.413,2.168,0.898c0.997,3.997,2.064,7.978,3.007,11.987
		c0.526,2.23-1.529,5.494-3.773,6.086c-0.374,0.097-1.2-0.213-1.274-0.485C-234.556-90.041-235.676-94.437-236.735-98.517z"/>
	<path fill-rule="evenodd" clip-rule="evenodd" fill="none" stroke="#CCCCCC" stroke-width="0.75" stroke-miterlimit="10" d="
		M-255.461-79.595c0.077-2.859,1.211-4.617,3.231-5.779c1.018-0.585,1.799-0.478,2.139,0.929c0.985,4.074,2.299,8.088,2.979,12.208
		c0.221,1.335-1.073,2.95-1.786,4.38c-0.1,0.201-1.032,0.282-1.265,0.071c-1.079-0.978-2.504-1.911-2.964-3.169
		C-254.199-73.891-254.79-77.002-255.461-79.595z"/>
	<path fill-rule="evenodd" clip-rule="evenodd" fill="none" stroke="#CCCCCC" stroke-width="0.75" stroke-miterlimit="10" d="
		M-230.489-104.893c0.114-0.769,0.138-1.264,0.266-1.73c0.857-3.133,1.946-3.335,4.324-1.248c1.744,1.53,2.151,3.493,2.661,5.506
		c0.325,1.285,0.635,2.575,0.959,3.861c0.727,2.883-0.374,5.528-3.002,6.804c-0.473,0.229-1.737-0.025-1.812-0.289
		C-228.324-96.35-229.423-100.747-230.489-104.893z"/>
	<path fill-rule="evenodd" clip-rule="evenodd" fill="none" stroke="#CCCCCC" stroke-width="0.75" stroke-miterlimit="10" d="
		M-221.808-104.152c1.181,1.339,2.406,2.644,3.51,4.042c0.259,0.328,0.339,1.194,0.108,1.431c-0.503,0.518-1.229,0.896-1.93,1.095
		c-0.196,0.057-0.786-0.668-0.919-1.114c-0.489-1.658-0.863-3.351-1.28-5.029C-222.148-103.869-221.979-104.011-221.808-104.152z"/>
	<path fill-rule="evenodd" clip-rule="evenodd" fill="none" stroke="#CCCCCC" stroke-width="0.75" stroke-miterlimit="10" d="
		M-255.621-72.924c-1.236-1.294-2.515-2.552-3.68-3.907c-0.271-0.315-0.385-1.221-0.176-1.404c0.584-0.514,1.35-0.875,2.102-1.108
		c0.203-0.063,0.791,0.489,0.899,0.849c0.518,1.716,0.929,3.464,1.378,5.2C-255.272-73.171-255.446-73.047-255.621-72.924z"/>
</g>
<g>
	<circle fill="none" stroke="#CCCCCC" stroke-width="0.75" stroke-miterlimit="10" cx="-113.992" cy="-85.759" r="5.296"/>
	<path fill="none" stroke="#CCCCCC" stroke-width="0.75" stroke-miterlimit="10" d="M-109.584-104.865
		c0,5.085-1.309,10.108-3.124,11.636c-0.456,0.385-0.944-0.117-1.452-0.117c-0.691,0-1.347,0.797-1.935,0.106
		c-1.561-1.836-2.642-7.005-2.642-11.625c0-6.361,2.049-11.518,4.576-11.518S-109.584-111.227-109.584-104.865z"/>
	<path fill="none" stroke="#CCCCCC" stroke-width="0.75" stroke-miterlimit="10" d="M-118.736-66.551
		c0-5.085,1.31-10.109,3.125-11.637c0.456-0.384,0.944,0.118,1.451,0.118c0.691,0,1.348-0.798,1.936-0.105
		c1.56,1.833,2.641,7.003,2.641,11.624c0,6.36-2.049,11.517-4.576,11.517S-118.736-60.191-118.736-66.551z"/>
	<path fill="none" stroke="#CCCCCC" stroke-width="0.75" stroke-miterlimit="10" d="M-95.004-81.016
		c-5.083,0-10.108-1.308-11.636-3.123c-0.384-0.456,0.117-0.945,0.117-1.452c0-0.69-0.796-1.347-0.104-1.936
		c1.835-1.561,7.003-2.64,11.623-2.64c6.362,0,11.519,2.048,11.519,4.575S-88.642-81.016-95.004-81.016z"/>
	<path fill="none" stroke="#CCCCCC" stroke-width="0.75" stroke-miterlimit="10" d="M-133.316-90.166
		c5.084,0,10.109,1.307,11.636,3.124c0.384,0.456-0.118,0.944-0.118,1.452c0,0.692,0.797,1.348,0.106,1.936
		c-1.836,1.559-7.004,2.639-11.624,2.639c-6.361,0-11.519-2.048-11.519-4.575S-139.678-90.166-133.316-90.166z"/>
	<path fill="none" stroke="#CCCCCC" stroke-width="0.75" stroke-miterlimit="10" d="M-97.378-95.901
		c-3.595,3.596-8.074,6.223-10.438,6.02c-0.594-0.052-0.584-0.752-0.942-1.11c-0.49-0.488-1.518-0.389-1.444-1.293
		c0.195-2.4,3.085-6.82,6.352-10.087c4.499-4.498,9.594-6.696,11.38-4.91C-90.682-105.494-92.88-100.398-97.378-95.901z"/>
	<path fill="none" stroke="#CCCCCC" stroke-width="0.75" stroke-miterlimit="10" d="M-130.941-75.28
		c3.595-3.596,8.073-6.224,10.438-6.02c0.594,0.051,0.584,0.752,0.943,1.11c0.49,0.488,1.517,0.39,1.444,1.293
		c-0.195,2.402-3.086,6.819-6.353,10.088c-4.498,4.497-9.594,6.695-11.38,4.908C-137.637-65.688-135.439-70.782-130.941-75.28z"/>
	<path fill="none" stroke="#CCCCCC" stroke-width="0.75" stroke-miterlimit="10" d="M-124.47-102.372
		c3.595,3.595,6.222,8.073,6.02,10.438c-0.052,0.594-0.752,0.584-1.111,0.942c-0.489,0.489-0.389,1.516-1.293,1.444
		c-2.4-0.195-6.819-3.085-10.087-6.354c-4.498-4.497-6.695-9.592-4.908-11.38C-134.063-109.068-128.968-106.87-124.47-102.372z"/>
	<path fill="none" stroke="#CCCCCC" stroke-width="0.75" stroke-miterlimit="10" d="M-103.85-68.809
		c-3.594-3.596-6.222-8.073-6.018-10.438c0.051-0.595,0.75-0.586,1.109-0.943c0.489-0.489,0.389-1.517,1.294-1.444
		c2.4,0.195,6.819,3.084,10.087,6.353c4.498,4.498,6.696,9.592,4.908,11.38C-94.256-62.113-99.351-64.312-103.85-68.809z"/>
	<path fill="none" stroke="#CCCCCC" stroke-width="0.75" stroke-miterlimit="10" d="M-135.85-107.282
		c-10.656-7.68-26.374,0.593-26.374,0.593s4.172,16.522,18.022,19.6"/>
	<path fill="none" stroke="#CCCCCC" stroke-width="0.75" stroke-miterlimit="10" d="M-153.06-91.871
		c-6.7,0.817-10.633,9.975-10.633,9.975c0.056,0.017,20.185,7.8,27.221,0.585"/>
</g>
<g>
	<ellipse fill="none" stroke="#CCCCCC" stroke-miterlimit="10" cx="-458.149" cy="-110.287" rx="5.081" ry="4.838"/>
	<ellipse fill="none" stroke="#CCCCCC" stroke-miterlimit="10" cx="-447.988" cy="-110.287" rx="5.081" ry="4.838"/>
	<ellipse fill="none" stroke="#CCCCCC" stroke-miterlimit="10" cx="-437.827" cy="-110.287" rx="5.08" ry="4.838"/>
	<ellipse fill="none" stroke="#CCCCCC" stroke-miterlimit="10" cx="-427.667" cy="-110.287" rx="5.081" ry="4.838"/>
	<ellipse fill="none" stroke="#CCCCCC" stroke-miterlimit="10" cx="-453.068" cy="-100.61" rx="5.08" ry="4.838"/>
	<ellipse fill="none" stroke="#CCCCCC" stroke-miterlimit="10" cx="-442.908" cy="-100.61" rx="5.081" ry="4.838"/>
	<ellipse fill="none" stroke="#CCCCCC" stroke-miterlimit="10" cx="-432.747" cy="-100.61" rx="5.081" ry="4.838"/>
	<ellipse fill="none" stroke="#CCCCCC" stroke-miterlimit="10" cx="-447.988" cy="-92.097" rx="5.081" ry="4.839"/>
	<ellipse fill="none" stroke="#CCCCCC" stroke-miterlimit="10" cx="-437.827" cy="-92.097" rx="5.08" ry="4.839"/>
	<ellipse fill="none" stroke="#CCCCCC" stroke-miterlimit="10" cx="-442.908" cy="-82.421" rx="5.081" ry="4.839"/>
	<path fill="none" stroke="#CCCCCC" stroke-miterlimit="10" d="M-438.834-115.729c0.51-9.366-16.924-13.592-16.924-13.592
		s2.445,7.545,4.671,14.292"/>
	<path fill="none" stroke="#CCCCCC" stroke-miterlimit="10" d="M-453.034-119.829c-4.473-2.343-10.196-1.832-10.196-1.832
		s1.922,3.238,4.917,6.841"/>
	<path fill="none" stroke="#CCCCCC" stroke-miterlimit="10" d="M-438.834-115.729c-1.84-7.742,10.222-14.994,10.222-14.994
		s2.285,11.433-2.173,16.395"/>
	<path fill="none" stroke="#CCCCCC" stroke-miterlimit="10" d="M-428.711-120.529c3.38-2.63,7.662-3.938,7.662-3.938
		s0,6.203-4.658,8.952"/>
</g>
<g>
	
		<ellipse transform="matrix(0.9502 0.3117 -0.3117 0.9502 -10.5298 120.8376)" fill-rule="evenodd" clip-rule="evenodd" fill="none" stroke="#CCCCCC" stroke-width="0.75" stroke-miterlimit="10" cx="-383.26" cy="27.48" rx="5.622" ry="1.945"/>
	<g>
		<path fill-rule="evenodd" clip-rule="evenodd" fill="none" stroke="#CCCCCC" stroke-width="0.75" stroke-miterlimit="10" d="
			M-405.727,78.449c0,0,16.352-52.838,17.125-52.72"/>
		
			<line fill-rule="evenodd" clip-rule="evenodd" fill="none" stroke="#CCCCCC" stroke-width="0.75" stroke-miterlimit="10" x1="-378.113" y1="29.554" x2="-401.014" y2="79.474"/>
		<path fill-rule="evenodd" clip-rule="evenodd" fill="none" stroke="#CCCCCC" stroke-width="0.75" stroke-miterlimit="10" d="
			M-401.014,79.474c-0.335,1.021-1.661,1.501-2.963,1.074c-1.301-0.427-2.084-1.6-1.75-2.621"/>
		
			<ellipse transform="matrix(0.8192 0.5736 -0.5736 0.8192 -47.0215 218.6569)" fill-rule="evenodd" clip-rule="evenodd" fill="none" stroke="#CCCCCC" stroke-width="0.75" stroke-miterlimit="10" cx="-370.271" cy="34.759" rx="4.489" ry="1.944"/>
		
			<line fill-rule="evenodd" clip-rule="evenodd" fill="none" stroke="#CCCCCC" stroke-width="0.75" stroke-miterlimit="10" x1="-401.014" y1="79.474" x2="-374.085" y2="32.506"/>
		
			<line fill-rule="evenodd" clip-rule="evenodd" fill="none" stroke="#CCCCCC" stroke-width="0.75" stroke-miterlimit="10" x1="-366.708" y1="37.526" x2="-397.97" y2="81.494"/>
		<path fill-rule="evenodd" clip-rule="evenodd" fill="none" stroke="#CCCCCC" stroke-width="0.75" stroke-miterlimit="10" d="
			M-397.97,81.494c-0.616,0.879-1.57,1.22-2.691,0.434c-1.122-0.786-0.968-1.573-0.353-2.453"/>
		
			<ellipse transform="matrix(0.9501 0.312 -0.312 0.9501 -10.5527 120.9299)" fill-rule="evenodd" clip-rule="evenodd" fill="none" stroke="#CCCCCC" stroke-width="0.75" stroke-miterlimit="10" cx="-383.26" cy="27.481" rx="2.811" ry="0.972"/>
		
			<ellipse transform="matrix(0.8192 0.5736 -0.5736 0.8192 -47.0536 218.7553)" fill-rule="evenodd" clip-rule="evenodd" fill="none" stroke="#CCCCCC" stroke-width="0.75" stroke-miterlimit="10" cx="-370.438" cy="34.758" rx="1.959" ry="0.849"/>
		<path fill="none" stroke="#CCCCCC" stroke-width="0.75" stroke-miterlimit="10" d="M-388.081,25.207c0,0-4.413-0.272-8.068,4.348
			l-11.279,44.543c1.992-2.146,3.572-1.563,3.572-1.563"/>
	</g>
</g>
<g>
	<g>
		
			<circle fill-rule="evenodd" clip-rule="evenodd" fill="none" stroke="#CCCCCC" stroke-miterlimit="10" cx="12.829" cy="-70.234" r="14.047"/>
		<path fill-rule="evenodd" clip-rule="evenodd" fill="none" stroke="#CCCCCC" stroke-miterlimit="10" d="M-1.217-63.62
			c0,6.936-5.623,12.559-12.558,12.559c-0.516,0-5.212-0.916-5.212-0.916l-2.02,1.492c0,0,0.407-2.44-0.656-2.771
			c-2.037-0.631-3.148-0.205-3.148-0.205s1.198-2.194,0.623-2.846c-0.563-0.638-2.973-1.083-2.973-1.083s1.784-1.35,1.53-2.075
			c-0.455-1.3-0.703-2.698-0.703-4.155c0-6.936,5.623-12.56,12.56-12.56C-6.84-76.18-1.217-70.556-1.217-63.62z"/>
		<path fill-rule="evenodd" clip-rule="evenodd" fill="none" stroke="#CCCCCC" stroke-miterlimit="10" d="M3.115-92.272
			c0,9.009-5.618,21.27-5.618,21.27s-10.576-11.27-10.576-20.278c0-9.008,11.862-23.075,11.862-23.075S3.115-101.281,3.115-92.272z"
			/>
		<path fill-rule="evenodd" clip-rule="evenodd" fill="none" stroke="#CCCCCC" stroke-miterlimit="10" d="M15.315-88.234
			C9.947-85.031,1.14-80.551,1.14-80.551s3.947-11.795,9.314-14.998c5.368-3.203,17.969-1.135,17.969-1.135
			S20.683-91.436,15.315-88.234z"/>
		<polygon fill-rule="evenodd" clip-rule="evenodd" fill="none" stroke="#CCCCCC" stroke-miterlimit="10" points="21.829,-65.189 
			19.472,-64.759 18.488,-62.574 17.352,-64.683 14.969,-64.943 16.623,-66.676 16.134,-69.022 18.294,-67.984 20.374,-69.174 
			20.055,-66.799 		"/>
	</g>
</g>
<g>
	<g>
		<path fill-rule="evenodd" clip-rule="evenodd" fill="none" stroke="#CCCCCC" stroke-miterlimit="10" d="M-287.749,55.154
			c0.549-2.334,1.6-4.432,3.055-6.321c1.496-1.944,2.81-4.131,5.366-4.88c3.345-0.981,6.737-1.204,10.117-0.188
			c1.546,0.463,3.072,1.024,4.554,1.666c0.869,0.376,1.802,0.845,2.41,1.533c1.557,1.766,3.563,2.213,5.735,2.358
			c0.658,0.044,1.318,0.063,2.025,0.095c-0.596-0.84-1.188-1.66-1.766-2.49c-1.042-1.496-1.745-3.136-2.075-4.93
			c-0.475-2.57,1.399-6.884,3.55-8.203c1.541-0.945,3.248-0.868,4.907-0.626c3.718,0.54,6.836,2.221,9.043,5.332
			c0.489,0.69,0.735,1.56,1.053,2.362c0.787,1.985,1.88,3.729,3.632,5.024c1.918,1.418,3.989,1.856,6.264,1.096
			c0.378-0.125,0.688-0.458,1.027-0.699c0.509-0.363,0.987-0.777,1.528-1.083c1.627-0.918,3.294-0.809,4.909,0.014
			c2.534,1.291,5.123,2.504,7.523,4.015c1.155,0.727,1.93,2.06,2.943,3.193c2.349-0.431,5.035,1.881,5.361,3.742
			c0.4,2.27,0.123,4.432-1.584,6.206c-3.211,3.337-7.052,5.649-11.424,7.121c-0.358,0.121-0.675,0.368-1.006,0.564
			c-0.126,0.075-0.239,0.253-0.356,0.252c-2.449-0.031-4.112,1.541-5.823,2.933c-0.467,0.38-0.711,1.144-0.853,1.776
			c-0.121,0.541-0.269,0.809-0.828,0.984c-1.331,0.418-2.665,0.867-3.926,1.457c-1.182,0.551-1.99,1.446-2.102,2.898
			c-0.084,1.08-0.376,1.181-1.5,0.978c-1.355-0.246-2.705-0.596-4.072-0.705c-2.816-0.224-5.449,0.245-7.561,2.378
			c-0.738,0.745-1.646,1.321-2.387,2.063c-1.356,1.359-2.852,1.031-4.286,0.339c-3.683-1.777-6.525-4.601-9.089-7.705
			c-0.51-0.617-0.858-1.496-0.941-2.292c-0.063-0.599,0.255-1.406,0.683-1.857c1.113-1.175,2.445-2.142,3.571-3.306
			c1.395-1.442,2.289-3.217,2.944-5.107c0.077-0.224,0.103-0.466,0.144-0.703c0.148-0.846-0.161-1.186-1.063-1.159
			c-4.276,0.132-8.458,0.776-12.59,1.911c-2.561,0.703-5.2,0.748-7.843,0.209c-2.173-0.442-4.217-1.135-6-2.479
			c-2.033-1.531-3.032-3.591-3.098-6.125c-0.007-0.247-0.114-0.491-0.174-0.735C-287.749,55.758-287.749,55.456-287.749,55.154z
			 M-251.922,51.488c-0.059,0.079-0.119,0.158-0.178,0.236c-0.315-0.231-0.612-0.493-0.948-0.688
			c-0.627-0.363-1.25-0.76-1.926-1.002c-0.461-0.167-1.008-0.098-1.517-0.132c-2.227-0.148-4.329-0.519-5.911-2.377
			c-0.563-0.66-1.392-1.18-2.201-1.53c-3.405-1.468-6.879-2.724-10.696-2.239c-2.387,0.303-4.83,0.565-6.585,2.474
			c-0.97,1.055-1.756,2.276-2.642,3.41c-1.981,2.525-3.002,5.284-2.336,8.556c0.374,1.839,1.997,4.104,3.647,4.77
			c-1.276-2.606-1.492-3.572-0.927-4.598c0.354,2.544,1.033,4.782,3.857,5.766c-2.066-2.77-2.234-3.279-1.323-3.973
			c-0.058,1.54,0.837,2.537,1.888,3.443c0.295,0.255,0.649,0.462,0.882,0.764c0.519,0.671,1.173,0.626,1.787,0.558
			c-0.872-1.473-1.727-2.916-2.582-4.36c0.089-0.073,0.177-0.146,0.265-0.22c0.187,0.128,0.437,0.216,0.551,0.392
			c0.765,1.18,1.486,2.389,2.252,3.568c0.619,0.954,0.997,1.063,2.261,0.73c-0.521-0.606-1.078-1.154-1.51-1.789
			c-0.415-0.611-0.84-1.273-0.653-2.348c0.266,0.32,0.431,0.439,0.487,0.598c0.412,1.171,1.261,2.005,2.045,2.925
			c0.645,0.754,1.2,0.61,2.063,0.354c-0.646-0.723-1.214-1.359-1.782-1.996c0.039-0.092,0.078-0.185,0.115-0.277
			c0.225,0.07,0.504,0.078,0.663,0.22c0.473,0.42,0.971,0.841,1.325,1.355c0.488,0.709,0.987,0.574,1.545,0.251
			c-0.402-0.668-0.794-1.318-1.185-1.969c0.1-0.07,0.2-0.141,0.3-0.212c0.221,0.207,0.504,0.378,0.654,0.628
			c0.923,1.542,1.444,1.457,3.034,0.809c-0.286-0.542-0.572-1.084-0.864-1.636c0.79-0.385,0.828,0.243,1.02,0.587
			c0.569,1.013,0.828,1.112,1.716,0.64c-0.174-0.334-0.349-0.666-0.523-0.999c0.075-0.064,0.151-0.128,0.228-0.192
			c0.225,0.154,0.51,0.263,0.664,0.47c0.506,0.681,1.139,0.748,1.917,0.603c0.885-0.166,1.788-0.267,2.688-0.311
			c1.061-0.052,2.126-0.012,3.264-0.012c-0.232-0.744-0.422-1.351-0.61-1.957c2.176,1.22,1.524,4.758-1.614,9.762
			c0.311,0.128,0.65,0.201,0.902,0.39c0.202,0.151,0.297,0.443,0.44,0.673c-0.237,0-0.499,0.066-0.707-0.012
			c-1.326-0.491-1.6-0.413-2.402,0.754c0.78,0.159,1.574,0.295,2.351,0.498c0.182,0.048,0.304,0.321,0.453,0.491
			c-0.23,0.037-0.462,0.114-0.69,0.101c-0.202-0.012-0.393-0.14-0.595-0.194c-0.96-0.257-1.915-0.278-2.887,0.159
			c2,0.094,3.953,0.344,5.375,1.888c1.338,1.453,2.666,2.932,3.825,4.526c1.175,1.615,1.625,3.51,1.389,5.569
			c0.575-0.397,0.972-0.891,0.796-1.596c-0.15-0.602-0.459-1.164-0.646-1.759c-0.075-0.24-0.012-0.523-0.012-0.787
			c0.11-0.006,0.22-0.012,0.329-0.019c0.377,1.06,0.754,2.118,1.185,3.325c0.16-0.287,0.501-0.609,0.454-0.859
			c-0.242-1.283-0.57-2.552-0.9-3.817c-0.076-0.291-0.278-0.548-0.422-0.821c1.577,1.039,1.504,2.819,2.078,4.561
			c0.404-0.583,1.006-1.07,0.937-1.427c-0.198-1.012-0.672-1.968-1.06-3.009c-0.081,0.036,0.196-0.117,0.212-0.093
			c0.589,0.864,1.154,1.746,1.75,2.666c2.026-1.302,0.185-2.571-0.118-3.899c0.235-0.02,0.464-0.038,0.708-0.057
			c0.362,0.972,0.715,1.917,0.989,2.655c1.717-0.172,3.346-0.479,4.97-0.455c1.423,0.021,2.845,0.39,4.259,0.652
			c0.767,0.142,1.349,0.155,1.39-0.859c0.045-1.136,0.787-1.841,1.63-2.468c1.322-0.983,2.763-1.687,4.422-1.863
			c0.497-0.053,0.692-0.251,0.741-0.795c0.088-0.971,0.628-1.74,1.428-2.303c0.984-0.689,2.032-1.299,2.949-2.066
			c0.466-0.391,0.813-1.017,1.012-1.604c0.209-0.614,0.176-1.311,0.249-1.971c0.781,0.99,0.112,2.034,0.219,3.04
			c1.592-0.463,1.675-0.564,1.685-2.165c0.001-0.329-0.035-0.661-0.078-0.988c-0.109-0.841-0.231-1.683-0.378-2.741
			c1.019,0.74,0.677,1.727,0.811,2.504c0.148,0.86,0.034,1.767,0.034,2.659c0.846-0.116,1.231-0.463,1.033-1.287
			c-0.048-0.201,0.085-0.446,0.136-0.67c0.092,0.006,0.185,0.014,0.277,0.021c0.08,0.43,0.159,0.86,0.252,1.359
			c1.111-0.51,2.216-0.956,3.262-1.513c1.085-0.578,2.134-1.23,3.163-1.907c1.932-1.268,3.657-2.752,4.687-4.892
			c0.524-1.09,0.644-2.224,0.366-3.393c-0.436,0.159-0.836,0.307-1.237,0.452c0.163-0.451,0.458-0.682,0.636-0.981
			c0.131-0.218,0.232-0.584,0.136-0.787c-0.471-1.005-1.311-1.617-2.351-2.093c0.119,2.919-1.031,6.158-2.216,6.247
			c1.221-2.08,2.474-4.145,1.005-6.719c-0.174,0.027-0.479,0.073-0.808,0.123c0.587,1.335,0.411,3.843-0.382,4.581
			c0-0.353-0.024-0.606,0.003-0.855c0.089-0.834,0.494-1.775,0.238-2.477c-0.593-1.622-1.339-3.326-2.848-4.282
			c-2.272-1.44-4.663-2.706-7.062-3.931c-1.736-0.887-3.546-1.228-5.406-0.141c-0.923,0.54-1.623,1.241-1.694,2.266
			c-0.072,1.043,0.845,1.516,1.647,1.95c0.789,0.428,1.608,0.8,2.39,1.242c0.206,0.116,0.318,0.396,0.474,0.602
			c-0.094,0.097-0.187,0.194-0.281,0.291c-1.574-0.913-3.148-1.826-4.665-2.705c0.028,0.131,0.016,0.493,0.172,0.753
			c0.473,0.79,0.986,1.559,1.532,2.301c0.379,0.514,0.416,0.488-0.069,1c-1.222-1.385-2.432-2.76-2.352-4.815
			c-0.093,0.02-0.187,0.038-0.278,0.057c0,0.821,0,1.642,0,2.462c-0.082-0.004-0.163-0.011-0.244-0.015
			c-0.334-1.156-0.396-2.31,0.268-3.653c-1.264,0.794-1.188,1.982-1.525,3.128c-0.868-1.042,0.269-1.892-0.006-2.778
			c-0.616-0.043-1.3,0.063-1.855-0.156c-3.197-1.267-5.292-3.607-6.5-6.813c-0.296-0.786-0.692-1.707-1.331-2.154
			c-1.254-0.875-2.75-1.185-4.292-0.647c-0.621,0.216-1.235,0.446-1.853,0.671c1.671-1.366,3.535-1.783,5.585-1.07
			c-0.72-1.615-2.122-1.77-3.44-1.402c-1.228,0.343-2.327,1.147-3.529,1.771c1.067-1.498,2.562-2.217,4.309-2.643
			c-2.113-1.461-3.397,0.13-4.962,1.423c0.409-1.561,1.53-2,2.599-2.519c-1.727-1.222-2.91,0.127-4.21,0.859
			c-0.04-0.064-0.08-0.129-0.12-0.193c0.457-0.487,0.913-0.975,1.367-1.459c-0.961-0.326-2.467-0.218-3.576,0.262
			c-2.345,1.011-4.454,5.19-3.984,7.847c0.369,2.081,1.184,3.96,2.492,5.614C-254.191,48.746-253.047,50.109-251.922,51.488z
			 M-261.256,74.149c-0.345,0-0.497,0.001-0.646,0c-1.564-0.013-2.232,1.008-1.57,2.417c0.113,0.242,0.25,0.488,0.434,0.677
			c1.65,1.702,3.221,3.497,5.004,5.047c1.206,1.047,2.689,1.795,4.103,2.581c1.1,0.612,1.614,0.321,1.444-0.853
			c-0.172-1.192-0.47-2.417-0.987-3.496c-0.947-1.971-2.461-3.527-4.119-4.953C-258.722,74.6-259.959,74.066-261.256,74.149z"/>
		<path fill-rule="evenodd" clip-rule="evenodd" fill="none" stroke="#CCCCCC" stroke-miterlimit="10" d="M-208.62,54.501
			c0.707,0.549,0.309,1.938-0.927,2.881C-209.223,56.372-208.932,55.472-208.62,54.501z"/>
	</g>
</g>
</svg>
