<?xml version="1.0" encoding="utf-8"?>
<!-- Generator: Adobe Illustrator 16.0.0, SVG Export Plug-In . SVG Version: 6.00 Build 0)  -->
<!DOCTYPE svg PUBLIC "-//W3C//DTD SVG 1.1//EN" "http://www.w3.org/Graphics/SVG/1.1/DTD/svg11.dtd">
<svg version="1.1" id="Layer_1" xmlns="http://www.w3.org/2000/svg" xmlns:xlink="http://www.w3.org/1999/xlink" x="0px" y="0px"
	 width="64.645px" height="73.378px" viewBox="-499.433 733.484 64.645 73.378"
	 enable-background="new -499.433 733.484 64.645 73.378" xml:space="preserve">
<g>
	<g>
		<g>
			<path fill="none" stroke="#FFFFFF" stroke-miterlimit="10" d="M-495.824,767.982c-1.84-0.652-2.979,0.285-2.979,0.285
				s0.891,1.719,2.076,1.875"/>
			<path fill="none" stroke="#FFFFFF" stroke-miterlimit="10" d="M-496.815,770.064c-0.843,0.846-1.085,2.184-1.085,2.184
				s4.099-0.078,4.825-2.65"/>
			<path fill="none" stroke="#FFFFFF" stroke-miterlimit="10" d="M-495.94,767.904c-0.992-0.873-0.25-2.748-0.25-2.748
				s3.727,2.122,3.065,4.712"/>
		</g>
		<g>
			<path fill="none" stroke="#FFFFFF" stroke-miterlimit="10" d="M-485.556,770.912c-2.097-1.148-3.655-0.236-3.655-0.236
				s0.741,2.25,2.142,2.67"/>
			<path fill="none" stroke="#FFFFFF" stroke-miterlimit="10" d="M-487.162,773.235c-1.184,0.856-1.736,2.423-1.736,2.423
				s4.966,0.707,6.345-2.257"/>
			<path fill="none" stroke="#FFFFFF" stroke-miterlimit="10" d="M-485.682,770.795c-1.028-1.247,0.233-3.367,0.233-3.367
				s4.088,3.291,2.782,6.29"/>
		</g>
		<g>
			<path fill="none" stroke="#FFFFFF" stroke-miterlimit="10" d="M-475.288,777.321c-2.211-1.847-4.266-1.133-4.266-1.133
				s0.351,2.832,1.91,3.657"/>
			<path fill="none" stroke="#FFFFFF" stroke-miterlimit="10" d="M-477.727,779.693c-1.599,0.736-2.618,2.461-2.618,2.461
				s5.707,1.993,8.029-1.191"/>
			<path fill="none" stroke="#FFFFFF" stroke-miterlimit="10" d="M-475.408,777.152c-0.925-1.715,1.061-3.928,1.061-3.928
				s4.067,4.845,1.825,8.086"/>
		</g>
		<g>
			<path fill="none" stroke="#FFFFFF" stroke-miterlimit="10" d="M-467.675,788.058c-1.046-2.683-3.191-3.049-3.191-3.049
				s-1.058,2.65-0.09,4.125"/>
			<path fill="none" stroke="#FFFFFF" stroke-miterlimit="10" d="M-470.954,788.961c-1.756-0.125-3.48,0.895-3.48,0.895
				s4.038,4.498,7.607,2.828"/>
			<path fill="none" stroke="#FFFFFF" stroke-miterlimit="10" d="M-467.698,787.853c0.016-1.947,2.824-2.93,2.824-2.93
				s1.142,5.779-1.949,7.764c-0.112,0.072-0.229,0.139-0.353,0.2"/>
		</g>
		<path fill="none" stroke="#FFFFFF" stroke-miterlimit="10" d="M-472.985,781.674c1.022,1.242,1.582,2.021,2.461,3.526"/>
		<path fill="none" stroke="#FFFFFF" stroke-miterlimit="10" d="M-482.663,773.713c1.213,0.671,2.464,1.452,3.711,2.36"/>
		<path fill="none" stroke="#FFFFFF" stroke-miterlimit="10" d="M-493.125,769.868c0,0,1.524,0.229,3.858,0.984"/>
	</g>
	<g>
		<g>
			<path fill="none" stroke="#FFFFFF" stroke-miterlimit="10" d="M-473.306,737.709c-1.653-2.008-3.596-1.718-3.596-1.718
				s-0.162,2.573,1.083,3.565"/>
			<path fill="none" stroke="#FFFFFF" stroke-miterlimit="10" d="M-475.867,739.406c-1.542,0.387-2.736,1.748-2.736,1.748
				s4.732,2.724,7.326,0.285"/>
			<path fill="none" stroke="#FFFFFF" stroke-miterlimit="10" d="M-473.385,737.54c-0.533-1.676,1.599-3.309,1.599-3.309
				s2.799,4.98,0.266,7.481"/>
		</g>
		<g>
			<path fill="none" stroke="#FFFFFF" stroke-miterlimit="10" d="M-463.596,748.099c-1.604-2.749-4.01-2.778-4.009-2.778
				c0,0-0.698,3.075,0.612,4.518"/>
			<path fill="none" stroke="#FFFFFF" stroke-miterlimit="10" d="M-467.021,749.648c-1.939,0.166-3.646,1.575-3.646,1.575
				s5.184,4.214,8.792,1.776"/>
			<path fill="none" stroke="#FFFFFF" stroke-miterlimit="10" d="M-463.658,747.879c-0.317-2.129,2.577-3.684,2.577-3.684
				s2.408,6.561-1.139,9.088"/>
		</g>
		<g>
			<path fill="none" stroke="#FFFFFF" stroke-miterlimit="10" d="M-456.271,762.459c-1.256-3.625-4.093-4.22-4.093-4.22
				s-1.542,3.474-0.328,5.483"/>
			<path fill="none" stroke="#FFFFFF" stroke-miterlimit="10" d="M-460.682,763.492c-2.331-0.256-4.676,1.014-4.676,1.014
				s5.146,6.191,9.981,4.15"/>
			<path fill="none" stroke="#FFFFFF" stroke-miterlimit="10" d="M-456.292,762.183c0.121-2.592,3.906-3.756,3.906-3.756
				s1.318,8.32-3.466,10.482"/>
		</g>
		<g>
			<path fill="none" stroke="#FFFFFF" stroke-miterlimit="10" d="M-454.946,779.939c0.647-3.781-1.551-5.67-1.551-5.67
				s-3.026,2.3-2.932,4.646"/>
			<path fill="none" stroke="#FFFFFF" stroke-miterlimit="10" d="M-459.309,778.719c-1.918-1.349-4.586-1.367-4.586-1.367
				s1.524,7.906,6.744,8.449"/>
			<path fill="none" stroke="#FFFFFF" stroke-miterlimit="10" d="M-454.832,779.687c1.355-2.211,5.232-1.405,5.232-1.405
				s-2.661,7.38-7.549,7.525c-0.177,0.005-0.357,0.001-0.54-0.013"/>
		</g>
		<path fill="none" stroke="#FFFFFF" stroke-miterlimit="10" d="M-467.047,806.615c3.571-6.295,8.99-15.348,9.896-20.814"/>
		<path fill="none" stroke="#FFFFFF" stroke-miterlimit="10" d="M-456.627,769.008c0.314,2.119,0.419,3.391,0.389,5.713"/>
		<path fill="none" stroke="#FFFFFF" stroke-miterlimit="10" d="M-462.213,753.28c0.924,1.598,1.816,3.347,2.617,5.241"/>
		<path fill="none" stroke="#FFFFFF" stroke-miterlimit="10" d="M-471.52,741.713c0,0,1.582,1.309,3.729,3.771"/>
	</g>
	<g>
		<g>
			<path fill="none" stroke="#FFFFFF" stroke-miterlimit="10" d="M-438.928,763.472c0.166-2.083-1.12-3-1.12-3
				s-1.528,1.396-1.362,2.666"/>
			<path fill="none" stroke="#FFFFFF" stroke-miterlimit="10" d="M-441.354,763.025c-1.108-0.637-2.558-0.517-2.558-0.517
				s1.217,4.216,4.077,4.254"/>
			<path fill="none" stroke="#FFFFFF" stroke-miterlimit="10" d="M-438.878,763.331c0.627-1.267,2.771-1.02,2.771-1.02
				s-1.161,4.44-4.021,4.474"/>
		</g>
		<g>
			<path fill="none" stroke="#FFFFFF" stroke-miterlimit="10" d="M-439.111,774.899c0.607-2.485-0.767-3.844-0.767-3.843
				c0,0-2.12,1.389-2.167,2.953"/>
			<path fill="none" stroke="#FFFFFF" stroke-miterlimit="10" d="M-441.956,773.885c-1.213-0.986-2.986-1.124-2.986-1.124
				s0.645,5.329,4.092,5.934"/>
			<path fill="none" stroke="#FFFFFF" stroke-miterlimit="10" d="M-439.023,774.737c1.004-1.407,3.545-0.69,3.545-0.69
				s-2.269,5.137-5.73,4.618"/>
		</g>
		<g>
			<path fill="none" stroke="#FFFFFF" stroke-miterlimit="10" d="M-442.889,787.29c1.296-2.797-0.012-4.724-0.012-4.724
				s-2.83,1.147-3.251,2.987"/>
			<path fill="none" stroke="#FFFFFF" stroke-miterlimit="10" d="M-446.016,785.427c-1.206-1.448-3.271-2.024-3.271-2.024
				s-0.479,6.452,3.457,7.971"/>
			<path fill="none" stroke="#FFFFFF" stroke-miterlimit="10" d="M-442.748,787.119c1.517-1.432,4.354,0.008,4.354,0.008
				s-3.881,5.547-7.853,4.127"/>
		</g>
		<g>
			<path fill="none" stroke="#FFFFFF" stroke-miterlimit="10" d="M-451.879,798.136c2.483-1.825,2.267-4.145,2.267-4.145
				s-3.033-0.357-4.289,1.051"/>
			<path fill="none" stroke="#FFFFFF" stroke-miterlimit="10" d="M-453.721,794.996c-0.356-1.85-1.889-3.35-1.889-3.35
				s-3.53,5.421-0.815,8.648"/>
			<path fill="none" stroke="#FFFFFF" stroke-miterlimit="10" d="M-451.673,798.054c2.018-0.522,3.811,2.107,3.811,2.107
				s-5.658,2.782-8.565,0.137c-0.105-0.096-0.207-0.197-0.305-0.308"/>
		</g>
		<path fill="none" stroke="#FFFFFF" stroke-miterlimit="10" d="M-446.75,790.878c-1,1.399-1.65,2.194-2.963,3.521"/>
		<path fill="none" stroke="#FFFFFF" stroke-miterlimit="10" d="M-441.203,778.666c-0.357,1.44-0.818,2.949-1.411,4.492"/>
		<path fill="none" stroke="#FFFFFF" stroke-miterlimit="10" d="M-440.128,766.785c0,0.001,0.185,1.639,0.052,4.262"/>
	</g>
</g>
</svg>
