<?xml version="1.0" encoding="utf-8"?>
<!-- Generator: Adobe Illustrator 16.0.0, SVG Export Plug-In . SVG Version: 6.00 Build 0)  -->
<!DOCTYPE svg PUBLIC "-//W3C//DTD SVG 1.1//EN" "http://www.w3.org/Graphics/SVG/1.1/DTD/svg11.dtd">
<svg version="1.1" id="Layer_1" xmlns="http://www.w3.org/2000/svg" xmlns:xlink="http://www.w3.org/1999/xlink" x="0px" y="0px"
	 width="81.094px" height="62.099px" viewBox="0 0 81.094 62.099" enable-background="new 0 0 81.094 62.099" xml:space="preserve">
<g>
	<circle fill="none" stroke="#CCCCCC" stroke-width="0.75" stroke-miterlimit="10" cx="50.212" cy="30.999" r="5.296"/>
	<path fill="none" stroke="#CCCCCC" stroke-width="0.75" stroke-miterlimit="10" d="M54.62,11.893
		c0,5.085-1.309,10.108-3.124,11.636c-0.456,0.385-0.944-0.117-1.452-0.117c-0.691,0-1.347,0.797-1.935,0.106
		c-1.561-1.836-2.642-7.005-2.642-11.625c0-6.361,2.049-11.518,4.576-11.518S54.62,5.531,54.62,11.893z"/>
	<path fill="none" stroke="#CCCCCC" stroke-width="0.75" stroke-miterlimit="10" d="M45.468,50.207
		c0-5.085,1.31-10.109,3.125-11.637c0.456-0.384,0.944,0.118,1.451,0.118c0.691,0,1.348-0.798,1.936-0.105
		c1.56,1.833,2.641,7.003,2.641,11.624c0,6.36-2.049,11.517-4.576,11.517S45.468,56.567,45.468,50.207z"/>
	<path fill="none" stroke="#CCCCCC" stroke-width="0.75" stroke-miterlimit="10" d="M69.2,35.742
		c-5.083,0-10.108-1.308-11.636-3.123c-0.384-0.456,0.117-0.945,0.117-1.452c0-0.69-0.796-1.347-0.104-1.936
		c1.835-1.561,7.003-2.64,11.623-2.64c6.362,0,11.519,2.048,11.519,4.575S75.563,35.742,69.2,35.742z"/>
	<path fill="none" stroke="#CCCCCC" stroke-width="0.75" stroke-miterlimit="10" d="M30.888,26.592
		c5.084,0,10.109,1.307,11.636,3.124c0.384,0.456-0.118,0.944-0.118,1.452c0,0.692,0.797,1.348,0.106,1.936
		c-1.836,1.559-7.004,2.639-11.624,2.639c-6.361,0-11.519-2.048-11.519-4.575S24.526,26.592,30.888,26.592z"/>
	<path fill="none" stroke="#CCCCCC" stroke-width="0.75" stroke-miterlimit="10" d="M66.826,20.856
		c-3.595,3.596-8.074,6.223-10.438,6.02c-0.594-0.052-0.584-0.752-0.942-1.11c-0.49-0.488-1.518-0.389-1.444-1.293
		c0.195-2.4,3.085-6.82,6.352-10.087c4.499-4.498,9.594-6.696,11.38-4.91C73.522,11.264,71.324,16.359,66.826,20.856z"/>
	<path fill="none" stroke="#CCCCCC" stroke-width="0.75" stroke-miterlimit="10" d="M33.263,41.478
		c3.595-3.596,8.073-6.224,10.438-6.02c0.594,0.051,0.584,0.752,0.943,1.11c0.49,0.488,1.517,0.39,1.444,1.293
		c-0.195,2.402-3.086,6.819-6.353,10.088c-4.498,4.497-9.594,6.695-11.38,4.908C26.567,51.069,28.765,45.976,33.263,41.478z"/>
	<path fill="none" stroke="#CCCCCC" stroke-width="0.75" stroke-miterlimit="10" d="M39.734,14.386
		c3.595,3.595,6.222,8.073,6.02,10.438c-0.052,0.594-0.752,0.584-1.111,0.942c-0.489,0.489-0.389,1.516-1.293,1.444
		c-2.4-0.195-6.819-3.085-10.087-6.354c-4.498-4.497-6.695-9.592-4.908-11.38C30.141,7.689,35.236,9.888,39.734,14.386z"/>
	<path fill="none" stroke="#CCCCCC" stroke-width="0.75" stroke-miterlimit="10" d="M60.354,47.949
		c-3.594-3.596-6.222-8.073-6.018-10.438c0.051-0.595,0.75-0.586,1.109-0.943c0.489-0.489,0.389-1.517,1.294-1.444
		c2.4,0.195,6.819,3.084,10.087,6.353c4.498,4.498,6.696,9.592,4.908,11.38C69.948,54.645,64.853,52.446,60.354,47.949z"/>
	<path fill="none" stroke="#CCCCCC" stroke-width="0.75" stroke-miterlimit="10" d="M28.354,9.476
		C17.699,1.796,1.98,10.069,1.98,10.069s4.172,16.522,18.022,19.6"/>
	<path fill="none" stroke="#CCCCCC" stroke-width="0.75" stroke-miterlimit="10" d="M11.145,24.887
		c-6.7,0.817-10.633,9.975-10.633,9.975c0.056,0.017,20.185,7.8,27.221,0.585"/>
</g>
</svg>
