<?xml version="1.0" encoding="utf-8"?>
<!-- Generator: Adobe Illustrator 16.0.0, SVG Export Plug-In . SVG Version: 6.00 Build 0)  -->
<!DOCTYPE svg PUBLIC "-//W3C//DTD SVG 1.1//EN" "http://www.w3.org/Graphics/SVG/1.1/DTD/svg11.dtd">
<svg version="1.1" id="Layer_1" xmlns="http://www.w3.org/2000/svg" xmlns:xlink="http://www.w3.org/1999/xlink" x="0px" y="0px"
	 width="48.069px" height="17.264px" viewBox="0 0 48.069 17.264" enable-background="new 0 0 48.069 17.264" xml:space="preserve">
<g>
	<g>
		<path fill-rule="evenodd" clip-rule="evenodd" fill="none" stroke="#B4782A" stroke-width="2" stroke-miterlimit="10" d="
			M23.978,2.405c-2.446,4.142-4.776,8.031-6.999,11.981c-0.146,0.26,0.417,1.258,0.854,1.449c2.509,1.102,5.625,0.002,7.07-2.407
			c1.688-2.813,3.38-5.625,4.991-8.482c0.515-0.916,0.776-1.976,1.153-2.971c-1.249-0.282-2.514-0.842-3.74-0.767
			C26.13,1.282,24.995,2.014,23.978,2.405z M7.752,14.828c2.111,1.991,6.299,1.704,7.699-0.526
			c2.266-3.608,4.373-7.314,6.576-10.961c0.606-1.002,0.223-1.541-0.701-1.955c-1.879-0.844-5.378-0.129-6.509,1.653
			C12.353,6.917,10.08,10.917,7.752,14.828z M32.47,2.983c-2.136,3.634-4.452,7.534-6.687,11.478
			c-0.14,0.245,0.225,1.049,0.558,1.244c2.006,1.168,5.767,0.313,6.972-1.636c2.168-3.502,4.229-7.071,6.35-10.603
			c0.695-1.159,0.325-1.853-0.898-2.168C36.5,0.712,34.482,1.198,32.47,2.983z M5.85,3.122c-1.359,2.308-3.142,4.926-4.458,7.76
			c-0.564,1.215-0.217,2.883-0.146,4.337c0.016,0.314,0.732,0.916,0.945,0.844c1.515-0.507,3.571-0.734,4.359-1.834
			c2.432-3.395,4.341-7.162,6.525-10.739c0.755-1.235,0.278-1.863-0.855-2.169C9.971,0.714,7.926,1.155,5.85,3.122z M41.396,2.891
			c-2.178,3.686-4.51,7.571-6.723,11.525c-0.134,0.239,0.58,1.313,1.077,1.485c2.761,0.957,5.409-0.136,6.934-2.688
			c0.68-1.14,1.373-2.271,2.052-3.409c1.063-1.784,2.163-3.46,2.012-5.775c-0.206-3.157-1.119-3.785-3.94-2.175
			C42.386,2.095,42.02,2.428,41.396,2.891z M47.01,9.553c-0.22-0.02-0.441-0.041-0.661-0.061c-0.892,1.481-1.824,2.943-2.651,4.461
			c-0.221,0.41-0.316,1.339-0.138,1.438c0.636,0.355,1.417,0.6,2.139,0.59c0.331-0.004,0.887-0.673,0.935-1.088
			C46.842,13.123,46.898,11.335,47.01,9.553z M1.019,7.725c0.21,0.037,0.421,0.072,0.633,0.108c0.909-1.545,1.854-3.072,2.702-4.651
			c0.178-0.332,0.152-1.137-0.036-1.236C3.622,1.579,2.825,1.293,2.048,1.243C1.771,1.225,1.212,1.946,1.18,2.361
			C1.045,4.143,1.06,5.936,1.019,7.725z"/>
		<path fill-rule="evenodd" clip-rule="evenodd" fill="none" stroke="#B4782A" stroke-width="2" stroke-miterlimit="10" d="
			M23.978,2.405c1.018-0.391,2.153-1.123,3.329-1.196c1.226-0.075,2.492,0.485,3.74,0.767C30.67,2.97,30.408,4.03,29.894,4.946
			c-1.61,2.857-3.303,5.669-4.991,8.482c-1.445,2.41-4.561,3.509-7.07,2.407c-0.438-0.191-1-1.189-0.854-1.449
			C19.201,10.436,21.531,6.547,23.978,2.405z"/>
		<path fill-rule="evenodd" clip-rule="evenodd" fill="none" stroke="#B4782A" stroke-width="2" stroke-miterlimit="10" d="
			M7.752,14.828c2.328-3.912,4.601-7.912,7.065-11.79c1.131-1.782,4.63-2.497,6.509-1.653c0.924,0.414,1.307,0.953,0.701,1.955
			c-2.204,3.647-4.311,7.354-6.576,10.961C14.051,16.532,9.863,16.819,7.752,14.828z"/>
		<path fill-rule="evenodd" clip-rule="evenodd" fill="none" stroke="#B4782A" stroke-width="2" stroke-miterlimit="10" d="
			M32.47,2.983c2.013-1.785,4.03-2.271,6.295-1.685c1.223,0.316,1.593,1.009,0.898,2.168c-2.122,3.531-4.182,7.101-6.35,10.603
			c-1.206,1.949-4.966,2.804-6.972,1.636c-0.333-0.195-0.697-1-0.558-1.244C28.018,10.517,30.334,6.617,32.47,2.983z"/>
		<path fill-rule="evenodd" clip-rule="evenodd" fill="none" stroke="#B4782A" stroke-width="2" stroke-miterlimit="10" d="
			M5.85,3.122c2.076-1.967,4.121-2.408,6.371-1.802c1.134,0.306,1.61,0.934,0.855,2.169c-2.185,3.577-4.093,7.345-6.525,10.739
			c-0.788,1.101-2.845,1.327-4.359,1.834c-0.213,0.072-0.93-0.53-0.945-0.844c-0.071-1.454-0.419-3.122,0.146-4.337
			C2.708,8.048,4.49,5.429,5.85,3.122z"/>
		<path fill-rule="evenodd" clip-rule="evenodd" fill="none" stroke="#B4782A" stroke-width="2" stroke-miterlimit="10" d="
			M41.396,2.891c0.624-0.463,0.991-0.796,1.411-1.036c2.821-1.609,3.734-0.982,3.94,2.175c0.151,2.315-0.949,3.991-2.012,5.775
			c-0.679,1.139-1.372,2.27-2.052,3.409c-1.525,2.552-4.173,3.644-6.934,2.688c-0.497-0.172-1.21-1.246-1.077-1.485
			C36.886,10.463,39.218,6.577,41.396,2.891z"/>
		<path fill-rule="evenodd" clip-rule="evenodd" fill="none" stroke="#B4782A" stroke-width="2" stroke-miterlimit="10" d="
			M47.01,9.553c-0.112,1.782-0.168,3.57-0.376,5.34c-0.048,0.415-0.604,1.084-0.935,1.088c-0.722,0.01-1.502-0.234-2.139-0.59
			c-0.178-0.099-0.083-1.028,0.138-1.438c0.827-1.519,1.759-2.98,2.651-4.461C46.569,9.512,46.79,9.533,47.01,9.553z"/>
		<path fill-rule="evenodd" clip-rule="evenodd" fill="none" stroke="#B4782A" stroke-width="2" stroke-miterlimit="10" d="
			M1.019,7.725C1.06,5.936,1.045,4.143,1.18,2.361c0.032-0.415,0.591-1.136,0.868-1.118c0.777,0.05,1.574,0.336,2.271,0.703
			c0.188,0.099,0.214,0.905,0.036,1.236c-0.848,1.58-1.793,3.106-2.702,4.651C1.44,7.798,1.229,7.762,1.019,7.725z"/>
	</g>
</g>
</svg>
