<?xml version="1.0" encoding="utf-8"?>
<!-- Generator: Adobe Illustrator 16.0.0, SVG Export Plug-In . SVG Version: 6.00 Build 0)  -->
<!DOCTYPE svg PUBLIC "-//W3C//DTD SVG 1.1//EN" "http://www.w3.org/Graphics/SVG/1.1/DTD/svg11.dtd">
<svg version="1.1" id="Layer_1" xmlns="http://www.w3.org/2000/svg" xmlns:xlink="http://www.w3.org/1999/xlink" x="0px" y="0px"
	 width="48.068px" height="17.264px" viewBox="0 0 48.068 17.264" enable-background="new 0 0 48.068 17.264" xml:space="preserve">
<g>
	<g>
		<path fill="none" stroke="#FFFFFF" stroke-width="2" stroke-miterlimit="10" d="M23.978,2.406
			c-2.445,4.142-4.775,8.03-6.999,11.98c-0.146,0.26,0.417,1.258,0.854,1.449c2.509,1.102,5.625,0.002,7.069-2.407
			c1.688-2.813,3.381-5.625,4.991-8.482c0.516-0.915,0.776-1.976,1.153-2.971c-1.249-0.282-2.514-0.842-3.74-0.767
			C26.13,1.282,24.995,2.014,23.978,2.406z M7.752,14.828c2.11,1.99,6.299,1.704,7.699-0.526c2.266-3.608,4.373-7.314,6.575-10.961
			c0.606-1.002,0.224-1.541-0.7-1.955c-1.88-0.844-5.378-0.129-6.51,1.653C12.353,6.917,10.08,10.917,7.752,14.828z M32.47,2.983
			c-2.136,3.635-4.452,7.534-6.687,11.479c-0.141,0.245,0.225,1.049,0.558,1.244c2.006,1.168,5.767,0.313,6.972-1.637
			c2.168-3.502,4.229-7.07,6.351-10.603c0.694-1.159,0.324-1.854-0.898-2.168C36.5,0.712,34.482,1.198,32.47,2.983z M5.85,3.122
			c-1.358,2.308-3.142,4.926-4.458,7.76c-0.563,1.215-0.217,2.883-0.146,4.337c0.016,0.314,0.731,0.916,0.944,0.844
			c1.516-0.507,3.571-0.733,4.359-1.834c2.432-3.395,4.341-7.162,6.525-10.738c0.755-1.235,0.277-1.863-0.855-2.17
			C9.971,0.714,7.926,1.156,5.85,3.122z M41.396,2.891c-2.178,3.687-4.51,7.571-6.723,11.525c-0.134,0.239,0.58,1.313,1.077,1.484
			c2.761,0.957,5.409-0.136,6.934-2.688c0.68-1.14,1.373-2.271,2.052-3.409c1.063-1.784,2.163-3.46,2.013-5.775
			c-0.206-3.156-1.119-3.784-3.94-2.175C42.386,2.095,42.02,2.428,41.396,2.891z M47.01,9.553c-0.22-0.02-0.441-0.041-0.661-0.061
			c-0.892,1.48-1.824,2.942-2.65,4.461c-0.222,0.409-0.316,1.339-0.139,1.438c0.636,0.355,1.417,0.601,2.14,0.59
			c0.33-0.004,0.887-0.673,0.935-1.088C46.842,13.123,46.898,11.335,47.01,9.553z M1.019,7.725c0.21,0.037,0.421,0.072,0.633,0.108
			c0.909-1.545,1.854-3.072,2.702-4.651C4.532,2.85,4.506,2.045,4.318,1.946c-0.695-0.366-1.492-0.652-2.27-0.702
			C1.771,1.225,1.212,1.946,1.18,2.361C1.045,4.143,1.06,5.936,1.019,7.725z"/>
		<path fill="none" stroke="#FFFFFF" stroke-width="2" stroke-miterlimit="10" d="M23.978,2.406
			c1.019-0.392,2.153-1.123,3.329-1.196c1.227-0.075,2.492,0.484,3.74,0.767c-0.377,0.994-0.639,2.055-1.153,2.97
			c-1.609,2.857-3.303,5.67-4.991,8.482c-1.444,2.41-4.561,3.509-7.069,2.407c-0.438-0.191-1-1.189-0.854-1.449
			C19.201,10.436,21.531,6.547,23.978,2.406z"/>
		<path fill="none" stroke="#FFFFFF" stroke-width="2" stroke-miterlimit="10" d="M7.752,14.828
			c2.328-3.912,4.601-7.912,7.064-11.79c1.132-1.782,4.63-2.497,6.51-1.653c0.924,0.414,1.307,0.953,0.7,1.955
			c-2.203,3.646-4.311,7.354-6.575,10.961C14.051,16.532,9.863,16.819,7.752,14.828z"/>
		<path fill="none" stroke="#FFFFFF" stroke-width="2" stroke-miterlimit="10" d="M32.47,2.983c2.013-1.784,4.03-2.271,6.295-1.685
			c1.223,0.316,1.593,1.009,0.898,2.168c-2.122,3.531-4.183,7.101-6.351,10.603c-1.206,1.949-4.966,2.805-6.972,1.637
			c-0.333-0.195-0.697-1-0.558-1.244C28.018,10.517,30.334,6.617,32.47,2.983z"/>
		<path fill="none" stroke="#FFFFFF" stroke-width="2" stroke-miterlimit="10" d="M5.85,3.122c2.076-1.967,4.121-2.408,6.371-1.803
			c1.134,0.307,1.61,0.935,0.855,2.17c-2.186,3.576-4.094,7.345-6.525,10.738c-0.788,1.102-2.845,1.327-4.359,1.834
			c-0.213,0.072-0.93-0.529-0.944-0.844c-0.071-1.454-0.419-3.122,0.146-4.337C2.708,8.048,4.49,5.429,5.85,3.122z"/>
		<path fill="none" stroke="#FFFFFF" stroke-width="2" stroke-miterlimit="10" d="M41.396,2.891
			c0.624-0.463,0.991-0.796,1.411-1.036c2.821-1.608,3.734-0.981,3.94,2.176c0.15,2.314-0.949,3.99-2.013,5.774
			c-0.679,1.139-1.372,2.271-2.052,3.409c-1.524,2.552-4.173,3.644-6.934,2.688c-0.497-0.172-1.21-1.245-1.077-1.484
			C36.886,10.463,39.218,6.577,41.396,2.891z"/>
		<path fill="none" stroke="#FFFFFF" stroke-width="2" stroke-miterlimit="10" d="M47.01,9.553c-0.112,1.782-0.168,3.57-0.376,5.34
			c-0.048,0.415-0.604,1.084-0.935,1.088c-0.723,0.011-1.503-0.233-2.14-0.59c-0.178-0.099-0.083-1.028,0.139-1.438
			c0.826-1.52,1.759-2.98,2.65-4.461C46.569,9.512,46.79,9.533,47.01,9.553z"/>
		<path fill="none" stroke="#FFFFFF" stroke-width="2" stroke-miterlimit="10" d="M1.019,7.725C1.06,5.936,1.045,4.143,1.18,2.361
			c0.032-0.415,0.591-1.136,0.868-1.117c0.777,0.05,1.574,0.336,2.271,0.702c0.188,0.1,0.215,0.905,0.036,1.236
			c-0.848,1.58-1.793,3.106-2.702,4.651C1.44,7.798,1.229,7.762,1.019,7.725z"/>
	</g>
</g>
</svg>
