<?xml version="1.0" encoding="utf-8"?>
<!-- Generator: Adobe Illustrator 16.0.0, SVG Export Plug-In . SVG Version: 6.00 Build 0)  -->
<!DOCTYPE svg PUBLIC "-//W3C//DTD SVG 1.1//EN" "http://www.w3.org/Graphics/SVG/1.1/DTD/svg11.dtd">
<svg version="1.1" id="Layer_1" xmlns="http://www.w3.org/2000/svg" xmlns:xlink="http://www.w3.org/1999/xlink" x="0px" y="0px"
	 width="42.281px" height="42.33px" viewBox="0 0 42.281 42.33" enable-background="new 0 0 42.281 42.33" xml:space="preserve">
<g>
	<path fill-rule="evenodd" clip-rule="evenodd" fill="none" stroke="#CCCCCC" stroke-width="0.75" stroke-miterlimit="10" d="
		M16.81,16.698c1.199,4.658,2.302,9.057,3.523,13.421c0.081,0.287,1.185,0.595,1.629,0.421c2.554-0.995,3.979-3.976,3.297-6.702
		c-0.796-3.182-1.587-6.368-2.469-9.527c-0.284-1.012-0.849-1.946-1.285-2.916c-1.082,0.684-2.373,1.183-3.187,2.103
		C17.539,14.381,17.253,15.701,16.81,16.698z M14.122,36.955c2.9-0.085,5.659-3.249,5.072-5.816
		c-0.95-4.153-2.08-8.264-3.101-12.401c-0.28-1.137-0.932-1.248-1.878-0.887c-1.926,0.732-3.894,3.712-3.434,5.771
		C11.781,28.108,13.002,32.543,14.122,36.955z M23.224,11.101c1.06,4.08,2.18,8.476,3.388,12.845c0.074,0.271,0.9,0.582,1.274,0.485
		c2.245-0.593,4.299-3.856,3.773-6.086c-0.943-4.01-2.01-7.99-3.007-11.987c-0.327-1.312-1.08-1.54-2.168-0.898
		C24.468,6.646,23.385,8.416,23.224,11.101z M4.499,30.023c0.671,2.593,1.262,5.704,2.335,8.64c0.459,1.258,1.885,2.191,2.964,3.169
		c0.233,0.211,1.165,0.13,1.265-0.071c0.713-1.43,2.006-3.044,1.786-4.38c-0.681-4.12-1.995-8.134-2.979-12.208
		c-0.34-1.407-1.121-1.514-2.139-0.929C5.71,25.406,4.576,27.163,4.499,30.023z M29.47,4.725c1.066,4.146,2.165,8.543,3.396,12.903
		c0.075,0.264,1.339,0.519,1.812,0.289c2.628-1.276,3.729-3.921,3.002-6.804c-0.325-1.286-0.634-2.576-0.959-3.861
		c-0.51-2.013-0.917-3.976-2.661-5.506c-2.378-2.087-3.467-1.885-4.324,1.248C29.608,3.461,29.584,3.956,29.47,4.725z M38.151,5.465
		c-0.17,0.142-0.34,0.283-0.51,0.424c0.417,1.679,0.791,3.371,1.28,5.029c0.133,0.446,0.723,1.171,0.919,1.114
		c0.701-0.198,1.426-0.577,1.93-1.095c0.23-0.237,0.151-1.103-0.108-1.431C40.557,8.109,39.333,6.804,38.151,5.465z M4.338,36.694
		c0.175-0.123,0.349-0.247,0.524-0.371c-0.45-1.735-0.861-3.483-1.378-5.2c-0.108-0.36-0.696-0.912-0.899-0.849
		c-0.752,0.233-1.518,0.595-2.102,1.108c-0.208,0.184-0.094,1.089,0.176,1.404C1.824,34.142,3.102,35.4,4.338,36.694z"/>
	<path fill-rule="evenodd" clip-rule="evenodd" fill="none" stroke="#CCCCCC" stroke-width="0.75" stroke-miterlimit="10" d="
		M16.81,16.698c0.443-0.996,0.729-2.316,1.509-3.2c0.813-0.92,2.104-1.419,3.187-2.103c0.437,0.97,1.001,1.904,1.285,2.916
		c0.881,3.159,1.673,6.345,2.469,9.527c0.682,2.726-0.743,5.707-3.297,6.702c-0.444,0.174-1.548-0.134-1.629-0.421
		C19.112,25.754,18.009,21.356,16.81,16.698z"/>
	<path fill-rule="evenodd" clip-rule="evenodd" fill="none" stroke="#CCCCCC" stroke-width="0.75" stroke-miterlimit="10" d="
		M14.122,36.955c-1.12-4.412-2.341-8.848-3.341-13.333c-0.46-2.06,1.508-5.039,3.434-5.771c0.946-0.36,1.598-0.25,1.878,0.887
		c1.021,4.137,2.151,8.248,3.101,12.401C19.781,33.706,17.022,36.87,14.122,36.955z"/>
	<path fill-rule="evenodd" clip-rule="evenodd" fill="none" stroke="#CCCCCC" stroke-width="0.75" stroke-miterlimit="10" d="
		M23.224,11.101c0.161-2.685,1.244-4.455,3.26-5.643c1.088-0.642,1.841-0.413,2.168,0.898c0.997,3.997,2.064,7.978,3.007,11.987
		c0.526,2.23-1.529,5.494-3.773,6.086c-0.374,0.097-1.2-0.213-1.274-0.485C25.404,19.576,24.284,15.181,23.224,11.101z"/>
	<path fill-rule="evenodd" clip-rule="evenodd" fill="none" stroke="#CCCCCC" stroke-width="0.75" stroke-miterlimit="10" d="
		M4.499,30.023c0.077-2.859,1.211-4.617,3.231-5.779c1.018-0.585,1.799-0.478,2.139,0.929c0.985,4.074,2.299,8.088,2.979,12.208
		c0.221,1.335-1.073,2.95-1.786,4.38c-0.1,0.201-1.032,0.282-1.265,0.071c-1.079-0.978-2.504-1.911-2.964-3.169
		C5.76,35.727,5.169,32.615,4.499,30.023z"/>
	<path fill-rule="evenodd" clip-rule="evenodd" fill="none" stroke="#CCCCCC" stroke-width="0.75" stroke-miterlimit="10" d="
		M29.47,4.725c0.114-0.769,0.138-1.264,0.266-1.73c0.857-3.133,1.946-3.335,4.324-1.248c1.744,1.53,2.151,3.493,2.661,5.506
		c0.325,1.285,0.635,2.575,0.959,3.861c0.727,2.883-0.374,5.528-3.002,6.804c-0.473,0.229-1.737-0.025-1.812-0.289
		C31.635,13.268,30.537,8.87,29.47,4.725z"/>
	<path fill-rule="evenodd" clip-rule="evenodd" fill="none" stroke="#CCCCCC" stroke-width="0.75" stroke-miterlimit="10" d="
		M38.151,5.465c1.181,1.339,2.406,2.644,3.51,4.042c0.259,0.328,0.339,1.194,0.108,1.431c-0.503,0.518-1.229,0.896-1.93,1.095
		c-0.196,0.057-0.786-0.668-0.919-1.114c-0.489-1.658-0.863-3.351-1.28-5.029C37.811,5.748,37.981,5.607,38.151,5.465z"/>
	<path fill-rule="evenodd" clip-rule="evenodd" fill="none" stroke="#CCCCCC" stroke-width="0.75" stroke-miterlimit="10" d="
		M4.338,36.694c-1.236-1.294-2.515-2.552-3.68-3.907c-0.271-0.315-0.385-1.221-0.176-1.404c0.584-0.514,1.35-0.875,2.102-1.108
		c0.203-0.063,0.791,0.489,0.899,0.849c0.518,1.716,0.929,3.464,1.378,5.2C4.688,36.447,4.513,36.571,4.338,36.694z"/>
</g>
</svg>
