<?xml version="1.0" encoding="utf-8"?>
<!-- Generator: Adobe Illustrator 16.0.0, SVG Export Plug-In . SVG Version: 6.00 Build 0)  -->
<!DOCTYPE svg PUBLIC "-//W3C//DTD SVG 1.1//EN" "http://www.w3.org/Graphics/SVG/1.1/DTD/svg11.dtd">
<svg version="1.1" id="Layer_1" xmlns="http://www.w3.org/2000/svg" xmlns:xlink="http://www.w3.org/1999/xlink" x="0px" y="0px"
	 width="43.931px" height="59.434px" viewBox="0 0 43.931 59.434" enable-background="new 0 0 43.931 59.434" xml:space="preserve">
<g>
	<g>
		
			<ellipse transform="matrix(0.9502 0.3117 -0.3117 0.9502 2.406 -7.9587)" fill-rule="evenodd" clip-rule="evenodd" fill="none" stroke="#B4782A" stroke-width="2" stroke-miterlimit="10" cx="26.099" cy="3.547" rx="5.622" ry="1.945"/>
		<g>
			<path fill-rule="evenodd" clip-rule="evenodd" fill="none" stroke="#B4782A" stroke-width="2" stroke-miterlimit="10" d="
				M3.632,54.515c0,0,16.352-52.838,17.125-52.72"/>
			
				<line fill-rule="evenodd" clip-rule="evenodd" fill="none" stroke="#B4782A" stroke-width="2" stroke-miterlimit="10" x1="31.246" y1="5.621" x2="8.345" y2="55.541"/>
			<path fill-rule="evenodd" clip-rule="evenodd" fill="none" stroke="#B4782A" stroke-width="2" stroke-miterlimit="10" d="
				M8.345,55.541c-0.335,1.021-1.661,1.501-2.963,1.074c-1.301-0.427-2.084-1.6-1.75-2.621"/>
			
				<ellipse transform="matrix(0.8192 0.5736 -0.5736 0.8192 13.2773 -20.4616)" fill-rule="evenodd" clip-rule="evenodd" fill="none" stroke="#B4782A" stroke-width="2" stroke-miterlimit="10" cx="39.088" cy="10.825" rx="4.489" ry="1.944"/>
			
				<line fill-rule="evenodd" clip-rule="evenodd" fill="none" stroke="#B4782A" stroke-width="2" stroke-miterlimit="10" x1="8.345" y1="55.541" x2="35.273" y2="8.573"/>
			
				<line fill-rule="evenodd" clip-rule="evenodd" fill="none" stroke="#B4782A" stroke-width="2" stroke-miterlimit="10" x1="42.65" y1="13.592" x2="11.389" y2="57.56"/>
			<path fill-rule="evenodd" clip-rule="evenodd" fill="none" stroke="#B4782A" stroke-width="2" stroke-miterlimit="10" d="
				M11.389,57.56c-0.616,0.879-1.57,1.22-2.691,0.434c-1.122-0.786-0.968-1.573-0.353-2.453"/>
			
				<ellipse transform="matrix(0.9501 0.312 -0.312 0.9501 2.409 -7.9645)" fill-rule="evenodd" clip-rule="evenodd" fill="none" stroke="#B4782A" stroke-width="2" stroke-miterlimit="10" cx="26.099" cy="3.547" rx="2.811" ry="0.972"/>
			
				<ellipse transform="matrix(0.8192 0.5736 -0.5736 0.8192 13.2467 -20.3655)" fill-rule="evenodd" clip-rule="evenodd" fill="none" stroke="#B4782A" stroke-width="2" stroke-miterlimit="10" cx="38.92" cy="10.824" rx="1.959" ry="0.849"/>
			<path fill="none" stroke="#B4782A" stroke-width="2" stroke-miterlimit="10" d="M21.278,1.273c0,0-4.413-0.272-8.068,4.348
				L1.931,50.164c1.992-2.146,3.572-1.563,3.572-1.563"/>
		</g>
	</g>
</g>
</svg>
