<?xml version="1.0" encoding="utf-8"?>
<!-- Generator: Adobe Illustrator 16.0.0, SVG Export Plug-In . SVG Version: 6.00 Build 0)  -->
<!DOCTYPE svg PUBLIC "-//W3C//DTD SVG 1.1//EN" "http://www.w3.org/Graphics/SVG/1.1/DTD/svg11.dtd">
<svg version="1.1" id="Layer_1" xmlns="http://www.w3.org/2000/svg" xmlns:xlink="http://www.w3.org/1999/xlink" x="0px" y="0px"
	 width="43.515px" height="54.436px" viewBox="0 0 43.515 54.436" enable-background="new 0 0 43.515 54.436" xml:space="preserve">
<g>
	<ellipse fill="none" stroke="#CCCCCC" stroke-miterlimit="10" cx="5.916" cy="21.23" rx="5.081" ry="4.838"/>
	<ellipse fill="none" stroke="#CCCCCC" stroke-miterlimit="10" cx="16.076" cy="21.23" rx="5.081" ry="4.838"/>
	<ellipse fill="none" stroke="#CCCCCC" stroke-miterlimit="10" cx="26.237" cy="21.23" rx="5.08" ry="4.838"/>
	<ellipse fill="none" stroke="#CCCCCC" stroke-miterlimit="10" cx="36.398" cy="21.23" rx="5.081" ry="4.838"/>
	<ellipse fill="none" stroke="#CCCCCC" stroke-miterlimit="10" cx="10.996" cy="30.908" rx="5.08" ry="4.838"/>
	<ellipse fill="none" stroke="#CCCCCC" stroke-miterlimit="10" cx="21.157" cy="30.908" rx="5.081" ry="4.838"/>
	<ellipse fill="none" stroke="#CCCCCC" stroke-miterlimit="10" cx="31.317" cy="30.908" rx="5.081" ry="4.838"/>
	<ellipse fill="none" stroke="#CCCCCC" stroke-miterlimit="10" cx="16.076" cy="39.42" rx="5.081" ry="4.839"/>
	<ellipse fill="none" stroke="#CCCCCC" stroke-miterlimit="10" cx="26.237" cy="39.42" rx="5.08" ry="4.839"/>
	<ellipse fill="none" stroke="#CCCCCC" stroke-miterlimit="10" cx="21.157" cy="49.097" rx="5.081" ry="4.839"/>
	<path fill="none" stroke="#CCCCCC" stroke-miterlimit="10" d="M25.23,15.788C25.74,6.422,8.306,2.196,8.306,2.196
		s2.445,7.545,4.671,14.292"/>
	<path fill="none" stroke="#CCCCCC" stroke-miterlimit="10" d="M11.031,11.688C6.558,9.346,0.835,9.857,0.835,9.857
		s1.922,3.238,4.917,6.841"/>
	<path fill="none" stroke="#CCCCCC" stroke-miterlimit="10" d="M25.23,15.788C23.39,8.046,35.452,0.794,35.452,0.794
		s2.285,11.433-2.173,16.395"/>
	<path fill="none" stroke="#CCCCCC" stroke-miterlimit="10" d="M35.353,10.989c3.38-2.63,7.662-3.938,7.662-3.938
		s0,6.203-4.658,8.952"/>
</g>
</svg>
