<?xml version="1.0" encoding="utf-8"?>
<!-- Generator: Adobe Illustrator 16.0.0, SVG Export Plug-In . SVG Version: 6.00 Build 0)  -->
<!DOCTYPE svg PUBLIC "-//W3C//DTD SVG 1.1//EN" "http://www.w3.org/Graphics/SVG/1.1/DTD/svg11.dtd">
<svg version="1.1" id="Layer_1" xmlns="http://www.w3.org/2000/svg" xmlns:xlink="http://www.w3.org/1999/xlink" x="0px" y="0px"
	 width="43.806px" height="41.688px" viewBox="0 0 43.806 41.688" enable-background="new 0 0 43.806 41.688" xml:space="preserve">
<g>
	<g>
		<path fill="none" stroke="#B4782A" stroke-width="2" stroke-miterlimit="10" d="M22.713,12.179
			c-4.424-2.309-3.819-6.767-10.125-6.182C0.556,7.115-1.419,32.321,3.514,35.323C6.771,37.305,6.647,35.651,9.3,36.9
			c2.059,0.968,1.037,2.284,3.682,3.419c6.902,2.959,22.619-12.624,21.04-19.988C32.444,12.967,25.738,13.756,22.713,12.179z"/>
		<path fill="none" stroke="#B4782A" stroke-width="2" stroke-miterlimit="10" d="M21.398,11.126
			c2.104-5.786-0.132-8.942-0.132-8.942C23.042,0.935,25.343,1,25.343,1l0.92,4.734c8.219-5.063,16.24-0.329,16.24-0.329
			s-4.471,9.205-13.084,8.876"/>
	</g>
</g>
</svg>
