<?xml version="1.0" encoding="utf-8"?>
<!-- Generator: Adobe Illustrator 16.0.0, SVG Export Plug-In . SVG Version: 6.00 Build 0)  -->
<!DOCTYPE svg PUBLIC "-//W3C//DTD SVG 1.1//EN" "http://www.w3.org/Graphics/SVG/1.1/DTD/svg11.dtd">
<svg version="1.1" id="Layer_1" xmlns="http://www.w3.org/2000/svg" xmlns:xlink="http://www.w3.org/1999/xlink" x="0px" y="0px"
	 width="60.635px" height="68.154px" viewBox="0 0 60.635 68.154" enable-background="new 0 0 60.635 68.154" xml:space="preserve">
<g>
	<g>
		
			<circle fill-rule="evenodd" clip-rule="evenodd" fill="none" stroke="#B4782A" stroke-width="2" stroke-miterlimit="10" cx="42.403" cy="46.133" r="14.047"/>
		<path fill-rule="evenodd" clip-rule="evenodd" fill="none" stroke="#B4782A" stroke-width="2" stroke-miterlimit="10" d="
			M28.357,52.746c0,6.936-5.623,12.559-12.558,12.559c-0.516,0-5.212-0.916-5.212-0.916l-2.02,1.492c0,0,0.407-2.44-0.656-2.771
			c-2.037-0.631-3.148-0.205-3.148-0.205s1.198-2.194,0.623-2.846c-0.563-0.638-2.973-1.083-2.973-1.083s1.784-1.35,1.53-2.075
			c-0.455-1.3-0.703-2.698-0.703-4.155c0-6.936,5.623-12.56,12.56-12.56C22.734,40.187,28.357,45.81,28.357,52.746z"/>
		<path fill-rule="evenodd" clip-rule="evenodd" fill="none" stroke="#B4782A" stroke-width="2" stroke-miterlimit="10" d="
			M32.689,24.094c0,9.009-5.618,21.27-5.618,21.27s-10.576-11.27-10.576-20.278c0-9.008,11.862-23.075,11.862-23.075
			S32.689,15.086,32.689,24.094z"/>
		<path fill-rule="evenodd" clip-rule="evenodd" fill="none" stroke="#B4782A" stroke-width="2" stroke-miterlimit="10" d="
			M44.89,28.133c-5.368,3.203-14.175,7.683-14.175,7.683s3.947-11.795,9.314-14.998c5.368-3.203,17.969-1.135,17.969-1.135
			S50.257,24.93,44.89,28.133z"/>
		<polygon fill-rule="evenodd" clip-rule="evenodd" fill="none" stroke="#B4782A" stroke-width="2" stroke-miterlimit="10" points="
			51.403,51.177 49.046,51.607 48.063,53.793 46.926,51.683 44.543,51.424 46.197,49.69 45.708,47.344 47.868,48.382 49.948,47.192 
			49.629,49.567 		"/>
	</g>
</g>
</svg>
