<?xml version="1.0" encoding="utf-8"?>
<!-- Generator: Adobe Illustrator 16.0.0, SVG Export Plug-In . SVG Version: 6.00 Build 0)  -->
<!DOCTYPE svg PUBLIC "-//W3C//DTD SVG 1.1//EN" "http://www.w3.org/Graphics/SVG/1.1/DTD/svg11.dtd">
<svg version="1.1" id="Layer_1" xmlns="http://www.w3.org/2000/svg" xmlns:xlink="http://www.w3.org/1999/xlink" x="0px" y="0px"
	 width="82.571px" height="63.349px" viewBox="0 0 82.571 63.349" enable-background="new 0 0 82.571 63.349" xml:space="preserve">
<g>
	<g>
		<circle fill="none" stroke="#B4782A" stroke-width="2" stroke-miterlimit="10" cx="51.063" cy="31.624" r="5.296"/>
		<path fill="none" stroke="#B4782A" stroke-width="2" stroke-miterlimit="10" d="M55.472,12.518c0,5.085-1.309,10.108-3.124,11.636
			c-0.456,0.385-0.944-0.117-1.452-0.117c-0.691,0-1.347,0.797-1.935,0.106c-1.561-1.836-2.642-7.005-2.642-11.625
			C46.319,6.156,48.368,1,50.896,1S55.472,6.156,55.472,12.518z"/>
		<path fill="none" stroke="#B4782A" stroke-width="2" stroke-miterlimit="10" d="M46.319,50.832c0-5.085,1.31-10.109,3.125-11.637
			c0.456-0.384,0.944,0.118,1.451,0.118c0.691,0,1.348-0.798,1.936-0.105c1.56,1.833,2.641,7.003,2.641,11.624
			c0,6.36-2.049,11.517-4.576,11.517S46.319,57.192,46.319,50.832z"/>
		<path fill="none" stroke="#B4782A" stroke-width="2" stroke-miterlimit="10" d="M70.052,36.367
			c-5.083,0-10.108-1.308-11.636-3.123c-0.384-0.456,0.117-0.945,0.117-1.452c0-0.69-0.796-1.347-0.104-1.936
			c1.835-1.561,7.003-2.64,11.623-2.64c6.362,0,11.519,2.048,11.519,4.575S76.414,36.367,70.052,36.367z"/>
		<path fill="none" stroke="#B4782A" stroke-width="2" stroke-miterlimit="10" d="M31.739,27.217c5.084,0,10.109,1.307,11.636,3.124
			c0.384,0.456-0.118,0.944-0.118,1.452c0,0.692,0.797,1.348,0.106,1.936c-1.836,1.559-7.004,2.639-11.624,2.639
			c-6.361,0-11.519-2.048-11.519-4.575S25.378,27.217,31.739,27.217z"/>
		<path fill="none" stroke="#B4782A" stroke-width="2" stroke-miterlimit="10" d="M67.678,21.481
			c-3.595,3.596-8.074,6.223-10.438,6.02c-0.594-0.052-0.584-0.752-0.942-1.11c-0.49-0.488-1.518-0.389-1.444-1.293
			c0.195-2.4,3.085-6.82,6.352-10.087c4.499-4.498,9.594-6.696,11.38-4.91C74.374,11.889,72.175,16.984,67.678,21.481z"/>
		<path fill="none" stroke="#B4782A" stroke-width="2" stroke-miterlimit="10" d="M34.114,42.103
			c3.595-3.596,8.073-6.224,10.438-6.02c0.594,0.051,0.584,0.752,0.943,1.11c0.49,0.488,1.517,0.39,1.444,1.293
			c-0.195,2.402-3.086,6.819-6.353,10.088c-4.498,4.497-9.594,6.695-11.38,4.908C27.419,51.694,29.616,46.601,34.114,42.103z"/>
		<path fill="none" stroke="#B4782A" stroke-width="2" stroke-miterlimit="10" d="M40.586,15.011
			c3.595,3.595,6.222,8.073,6.02,10.438c-0.052,0.594-0.752,0.584-1.111,0.942c-0.489,0.489-0.389,1.516-1.293,1.444
			c-2.4-0.195-6.819-3.085-10.087-6.354c-4.498-4.497-6.695-9.592-4.908-11.38C30.992,8.314,36.088,10.513,40.586,15.011z"/>
		<path fill="none" stroke="#B4782A" stroke-width="2" stroke-miterlimit="10" d="M61.206,48.574
			c-3.594-3.596-6.222-8.073-6.018-10.438c0.051-0.595,0.75-0.586,1.109-0.943c0.489-0.489,0.389-1.517,1.294-1.444
			c2.4,0.195,6.819,3.084,10.087,6.353c4.498,4.498,6.696,9.592,4.908,11.38C70.8,55.27,65.705,53.071,61.206,48.574z"/>
		<path fill="none" stroke="#B4782A" stroke-width="2" stroke-miterlimit="10" d="M29.206,10.101
			C18.55,2.421,2.832,10.694,2.832,10.694s4.172,16.522,18.022,19.6"/>
		<path fill="none" stroke="#B4782A" stroke-width="2" stroke-miterlimit="10" d="M11.996,25.512
			c-6.7,0.817-10.633,9.975-10.633,9.975c0.056,0.017,20.185,7.8,27.221,0.585"/>
	</g>
</g>
</svg>
