<?xml version="1.0" encoding="utf-8"?>
<!-- Generator: Adobe Illustrator 16.0.0, SVG Export Plug-In . SVG Version: 6.00 Build 0)  -->
<!DOCTYPE svg PUBLIC "-//W3C//DTD SVG 1.1//EN" "http://www.w3.org/Graphics/SVG/1.1/DTD/svg11.dtd">
<svg version="1.1" id="Layer_1" xmlns="http://www.w3.org/2000/svg" xmlns:xlink="http://www.w3.org/1999/xlink" x="0px" y="0px"
	 width="81.39px" height="62.349px" viewBox="-528.113 -1110.132 81.39 62.349"
	 enable-background="new -528.113 -1110.132 81.39 62.349" xml:space="preserve">
<g>
	<g>
		<circle fill="none" stroke="#FFFFFF" stroke-width="2" stroke-miterlimit="10" cx="-477.73" cy="-1079.008" r="5.296"/>
		<path fill="none" stroke="#FFFFFF" stroke-width="2" stroke-miterlimit="10" d="M-473.322-1098.115
			c0,5.085-1.309,10.108-3.124,11.636c-0.456,0.385-0.944-0.117-1.452-0.117c-0.691,0-1.347,0.797-1.935,0.106
			c-1.561-1.836-2.642-7.005-2.642-11.625c0-6.361,2.049-11.518,4.576-11.518S-473.322-1104.476-473.322-1098.115z"/>
		<path fill="none" stroke="#FFFFFF" stroke-width="2" stroke-miterlimit="10" d="M-482.475-1059.8
			c0-5.085,1.31-10.109,3.125-11.637c0.456-0.384,0.944,0.118,1.451,0.118c0.691,0,1.348-0.798,1.936-0.105
			c1.56,1.833,2.641,7.003,2.641,11.624c0,6.36-2.049,11.517-4.576,11.517S-482.475-1053.44-482.475-1059.8z"/>
		<path fill="none" stroke="#FFFFFF" stroke-width="2" stroke-miterlimit="10" d="M-458.742-1074.265
			c-5.083,0-10.108-1.308-11.636-3.123c-0.384-0.456,0.117-0.945,0.117-1.452c0-0.69-0.796-1.347-0.104-1.936
			c1.835-1.561,7.003-2.64,11.623-2.64c6.362,0,11.519,2.048,11.519,4.575S-452.38-1074.265-458.742-1074.265z"/>
		<path fill="none" stroke="#FFFFFF" stroke-width="2" stroke-miterlimit="10" d="M-497.055-1083.415
			c5.084,0,10.109,1.307,11.636,3.124c0.384,0.456-0.118,0.944-0.118,1.452c0,0.692,0.797,1.348,0.106,1.936
			c-1.836,1.559-7.004,2.639-11.624,2.639c-6.361,0-11.519-2.048-11.519-4.575S-503.416-1083.415-497.055-1083.415z"/>
		<path fill="none" stroke="#FFFFFF" stroke-width="2" stroke-miterlimit="10" d="M-461.116-1089.151
			c-3.595,3.596-8.074,6.223-10.438,6.02c-0.594-0.052-0.584-0.752-0.942-1.11c-0.49-0.488-1.518-0.389-1.444-1.293
			c0.195-2.4,3.085-6.82,6.352-10.087c4.499-4.498,9.594-6.696,11.38-4.91C-454.42-1098.743-456.619-1093.648-461.116-1089.151z"/>
		<path fill="none" stroke="#FFFFFF" stroke-width="2" stroke-miterlimit="10" d="M-494.68-1068.53
			c3.595-3.596,8.073-6.224,10.438-6.02c0.594,0.051,0.584,0.752,0.943,1.11c0.49,0.488,1.517,0.39,1.444,1.293
			c-0.195,2.402-3.086,6.819-6.353,10.088c-4.498,4.497-9.594,6.695-11.38,4.908C-501.375-1058.938-499.178-1064.031-494.68-1068.53
			z"/>
		<path fill="none" stroke="#FFFFFF" stroke-width="2" stroke-miterlimit="10" d="M-488.208-1095.621
			c3.595,3.595,6.222,8.073,6.02,10.438c-0.052,0.594-0.752,0.584-1.111,0.942c-0.489,0.489-0.389,1.516-1.293,1.444
			c-2.4-0.195-6.819-3.085-10.087-6.354c-4.498-4.497-6.695-9.592-4.908-11.38C-497.802-1102.318-492.706-1100.119-488.208-1095.621
			z"/>
		<path fill="none" stroke="#FFFFFF" stroke-width="2" stroke-miterlimit="10" d="M-467.588-1062.058
			c-3.594-3.596-6.222-8.073-6.018-10.438c0.051-0.595,0.75-0.586,1.109-0.943c0.489-0.489,0.389-1.517,1.294-1.444
			c2.4,0.195,6.819,3.084,10.087,6.353c4.498,4.498,6.696,9.592,4.908,11.38C-457.994-1055.363-463.089-1057.561-467.588-1062.058z"
			/>
		<path fill="none" stroke="#FFFFFF" stroke-width="2" stroke-miterlimit="10" d="M-499.588-1100.531
			c-10.656-7.68-26.374,0.593-26.374,0.593s4.172,16.522,18.022,19.6"/>
		<path fill="none" stroke="#FFFFFF" stroke-width="2" stroke-miterlimit="10" d="M-516.798-1085.12
			c-6.7,0.817-10.633,9.975-10.633,9.975c0.056,0.017,20.185,7.8,27.221,0.585"/>
	</g>
</g>
</svg>
