<?xml version="1.0" encoding="utf-8"?>
<!-- Generator: Adobe Illustrator 16.0.0, SVG Export Plug-In . SVG Version: 6.00 Build 0)  -->
<!DOCTYPE svg PUBLIC "-//W3C//DTD SVG 1.1//EN" "http://www.w3.org/Graphics/SVG/1.1/DTD/svg11.dtd">
<svg version="1.1" id="Layer_1" xmlns="http://www.w3.org/2000/svg" xmlns:xlink="http://www.w3.org/1999/xlink" x="0px" y="0px"
	 width="42.466px" height="58.434px" viewBox="-498.919 -490.427 42.466 58.434"
	 enable-background="new -498.919 -490.427 42.466 58.434" xml:space="preserve">
<g>
	
		<ellipse transform="matrix(0.9502 0.3117 -0.3117 0.9502 -175.5306 123.4033)" fill-rule="evenodd" clip-rule="evenodd" fill="none" stroke="#FFFFFF" stroke-miterlimit="10" cx="-473.786" cy="-487.38" rx="5.622" ry="1.945"/>
	<g>
		<path fill-rule="evenodd" clip-rule="evenodd" fill="none" stroke="#FFFFFF" stroke-miterlimit="10" d="M-496.253-436.411
			c0,0,16.352-52.838,17.125-52.72"/>
		
			<line fill-rule="evenodd" clip-rule="evenodd" fill="none" stroke="#FFFFFF" stroke-miterlimit="10" x1="-468.639" y1="-485.306" x2="-491.54" y2="-435.386"/>
		<path fill-rule="evenodd" clip-rule="evenodd" fill="none" stroke="#FFFFFF" stroke-miterlimit="10" d="M-491.54-435.386
			c-0.335,1.021-1.661,1.501-2.963,1.074c-1.301-0.427-2.084-1.6-1.75-2.621"/>
		
			<ellipse transform="matrix(0.8191 0.5736 -0.5736 0.8191 -358.714 177.4775)" fill-rule="evenodd" clip-rule="evenodd" fill="none" stroke="#FFFFFF" stroke-miterlimit="10" cx="-460.797" cy="-480.101" rx="4.489" ry="1.944"/>
		
			<line fill-rule="evenodd" clip-rule="evenodd" fill="none" stroke="#FFFFFF" stroke-miterlimit="10" x1="-491.54" y1="-435.386" x2="-464.611" y2="-482.354"/>
		
			<line fill-rule="evenodd" clip-rule="evenodd" fill="none" stroke="#FFFFFF" stroke-miterlimit="10" x1="-457.235" y1="-477.334" x2="-488.496" y2="-433.366"/>
		<path fill-rule="evenodd" clip-rule="evenodd" fill="none" stroke="#FFFFFF" stroke-miterlimit="10" d="M-488.496-433.366
			c-0.616,0.879-1.57,1.22-2.691,0.434c-1.122-0.786-0.968-1.573-0.353-2.453"/>
		
			<ellipse transform="matrix(0.9501 0.312 -0.312 0.9501 -175.6816 123.4772)" fill-rule="evenodd" clip-rule="evenodd" fill="none" stroke="#FFFFFF" stroke-miterlimit="10" cx="-473.786" cy="-487.379" rx="2.811" ry="0.972"/>
		
			<ellipse transform="matrix(0.8191 0.5736 -0.5736 0.8191 -358.7757 177.5786)" fill-rule="evenodd" clip-rule="evenodd" fill="none" stroke="#FFFFFF" stroke-miterlimit="10" cx="-460.965" cy="-480.102" rx="1.959" ry="0.849"/>
		<path fill="none" stroke="#FFFFFF" stroke-miterlimit="10" d="M-478.607-489.654c0,0-4.413-0.272-8.068,4.348l-11.279,44.543
			c1.992-2.146,3.572-1.563,3.572-1.563"/>
	</g>
</g>
</svg>
