<?xml version="1.0" encoding="utf-8"?>
<!-- Generator: Adobe Illustrator 16.0.0, SVG Export Plug-In . SVG Version: 6.00 Build 0)  -->
<!DOCTYPE svg PUBLIC "-//W3C//DTD SVG 1.1//EN" "http://www.w3.org/Graphics/SVG/1.1/DTD/svg11.dtd">
<svg version="1.1" id="Layer_1" xmlns="http://www.w3.org/2000/svg" xmlns:xlink="http://www.w3.org/1999/xlink" x="0px" y="0px"
	 width="43.516px" height="54.436px" viewBox="-1131.683 -479.292 43.516 54.436"
	 enable-background="new -1131.683 -479.292 43.516 54.436" xml:space="preserve">
<g>
	<ellipse fill="none" stroke="#FFFFFF" stroke-miterlimit="10" cx="-1125.767" cy="-458.062" rx="5.081" ry="4.838"/>
	<ellipse fill="none" stroke="#FFFFFF" stroke-miterlimit="10" cx="-1115.606" cy="-458.062" rx="5.08" ry="4.838"/>
	<ellipse fill="none" stroke="#FFFFFF" stroke-miterlimit="10" cx="-1105.446" cy="-458.062" rx="5.08" ry="4.838"/>
	<ellipse fill="none" stroke="#FFFFFF" stroke-miterlimit="10" cx="-1095.285" cy="-458.062" rx="5.081" ry="4.838"/>
	<ellipse fill="none" stroke="#FFFFFF" stroke-miterlimit="10" cx="-1120.687" cy="-448.385" rx="5.08" ry="4.838"/>
	<ellipse fill="none" stroke="#FFFFFF" stroke-miterlimit="10" cx="-1110.526" cy="-448.385" rx="5.081" ry="4.838"/>
	<ellipse fill="none" stroke="#FFFFFF" stroke-miterlimit="10" cx="-1100.365" cy="-448.385" rx="5.08" ry="4.838"/>
	<ellipse fill="none" stroke="#FFFFFF" stroke-miterlimit="10" cx="-1115.606" cy="-439.872" rx="5.08" ry="4.839"/>
	<ellipse fill="none" stroke="#FFFFFF" stroke-miterlimit="10" cx="-1105.446" cy="-439.872" rx="5.08" ry="4.839"/>
	<ellipse fill="none" stroke="#FFFFFF" stroke-miterlimit="10" cx="-1110.526" cy="-430.196" rx="5.081" ry="4.839"/>
	<path fill="none" stroke="#FFFFFF" stroke-miterlimit="10" d="M-1106.453-463.504c0.51-9.366-16.924-13.592-16.924-13.592
		s2.445,7.545,4.671,14.292"/>
	<path fill="none" stroke="#FFFFFF" stroke-miterlimit="10" d="M-1120.652-467.604c-4.473-2.343-10.196-1.832-10.196-1.832
		s1.922,3.238,4.917,6.841"/>
	<path fill="none" stroke="#FFFFFF" stroke-miterlimit="10" d="M-1106.453-463.504c-1.84-7.742,10.222-14.994,10.222-14.994
		s2.285,11.433-2.173,16.395"/>
	<path fill="none" stroke="#FFFFFF" stroke-miterlimit="10" d="M-1096.33-468.303c3.38-2.63,7.662-3.938,7.662-3.938
		s0,6.203-4.658,8.952"/>
</g>
</svg>
