<?xml version="1.0" encoding="utf-8"?>
<!-- Generator: Adobe Illustrator 16.0.0, SVG Export Plug-In . SVG Version: 6.00 Build 0)  -->
<!DOCTYPE svg PUBLIC "-//W3C//DTD SVG 1.1//EN" "http://www.w3.org/Graphics/SVG/1.1/DTD/svg11.dtd">
<svg version="1.1" id="Layer_1" xmlns="http://www.w3.org/2000/svg" xmlns:xlink="http://www.w3.org/1999/xlink" x="0px" y="0px"
	 width="42.654px" height="40.688px" viewBox="0 0 42.654 40.688" enable-background="new 0 0 42.654 40.688" xml:space="preserve">
<g>
	<g>
		<path fill="none" stroke="#FFFFFF" stroke-miterlimit="10" d="M22.213,11.679c-4.424-2.309-3.819-6.767-10.125-6.182
			C0.056,6.615-1.919,31.821,3.014,34.823C6.271,36.805,6.147,35.151,8.8,36.4c2.059,0.969,1.037,2.284,3.682,3.419
			c6.902,2.959,22.619-12.624,21.04-19.987C31.944,12.467,25.238,13.256,22.213,11.679z"/>
		<path fill="none" stroke="#FFFFFF" stroke-miterlimit="10" d="M20.898,10.626c2.104-5.786-0.132-8.942-0.132-8.942
			C22.542,0.435,24.843,0.5,24.843,0.5l0.92,4.733c8.219-5.063,16.24-0.328,16.24-0.328s-4.471,9.204-13.084,8.876"/>
	</g>
</g>
</svg>
