<?xml version="1.0" encoding="utf-8"?>
<!-- Generator: Adobe Illustrator 16.0.0, SVG Export Plug-In . SVG Version: 6.00 Build 0)  -->
<!DOCTYPE svg PUBLIC "-//W3C//DTD SVG 1.1//EN" "http://www.w3.org/Graphics/SVG/1.1/DTD/svg11.dtd">
<svg version="1.1" id="Layer_1" xmlns="http://www.w3.org/2000/svg" xmlns:xlink="http://www.w3.org/1999/xlink" x="0px" y="0px"
	 width="81.325px" height="52.995px" viewBox="-40.662 119.738 81.325 52.995"
	 enable-background="new -40.662 119.738 81.325 52.995" xml:space="preserve">
<g>
	<path fill="#B5772A" d="M-40.659,141.88c0.549-2.334,1.6-4.432,3.055-6.321c1.496-1.944,2.811-4.131,5.366-4.88
		c3.345-0.98,6.737-1.204,10.117-0.188c1.546,0.463,3.072,1.023,4.554,1.666c0.869,0.375,1.802,0.844,2.41,1.533
		c1.557,1.766,3.563,2.213,5.735,2.357c0.658,0.044,1.318,0.063,2.025,0.095c-0.596-0.84-1.188-1.659-1.766-2.489
		c-1.042-1.496-1.745-3.137-2.075-4.931c-0.475-2.569,1.399-6.884,3.55-8.203c1.541-0.944,3.248-0.866,4.907-0.626
		c3.718,0.54,6.836,2.221,9.043,5.332c0.489,0.689,0.735,1.561,1.053,2.362c0.787,1.985,1.88,3.729,3.632,5.022
		c1.918,1.42,3.989,1.856,6.264,1.098c0.378-0.125,0.688-0.459,1.027-0.699c0.509-0.361,0.987-0.777,1.528-1.083
		c1.627-0.918,3.294-0.81,4.909,0.015c2.534,1.291,5.123,2.504,7.523,4.014c1.155,0.728,1.93,2.061,2.943,3.193
		c2.349-0.431,5.035,1.881,5.361,3.742c0.4,2.271,0.123,4.432-1.584,6.206c-3.211,3.337-7.052,5.649-11.424,7.121
		c-0.358,0.12-0.675,0.366-1.006,0.563c-0.126,0.074-0.239,0.254-0.356,0.252c-2.449-0.031-4.112,1.541-5.823,2.934
		c-0.467,0.38-0.711,1.145-0.853,1.775c-0.121,0.541-0.269,0.81-0.828,0.984c-1.331,0.418-2.665,0.867-3.926,1.457
		c-1.182,0.551-1.99,1.445-2.102,2.896c-0.084,1.08-0.376,1.182-1.5,0.979c-1.355-0.246-2.705-0.596-4.072-0.705
		c-2.816-0.224-5.449,0.245-7.561,2.379c-0.738,0.745-1.646,1.32-2.387,2.063c-1.356,1.359-2.852,1.031-4.286,0.34
		c-3.683-1.777-6.525-4.602-9.089-7.705c-0.51-0.615-0.858-1.496-0.941-2.292c-0.063-0.601,0.255-1.405,0.683-1.856
		c1.113-1.176,2.445-2.143,3.571-3.308c1.395-1.44,2.289-3.217,2.944-5.106c0.077-0.224,0.103-0.465,0.144-0.703
		c0.148-0.846-0.161-1.186-1.063-1.158c-4.276,0.133-8.458,0.775-12.59,1.912c-2.561,0.701-5.2,0.746-7.843,0.209
		c-2.173-0.441-4.217-1.135-6-2.479c-2.033-1.531-3.032-3.592-3.098-6.125c-0.007-0.248-0.114-0.492-0.174-0.736
		C-40.659,142.484-40.659,142.182-40.659,141.88z M-4.833,138.213c-0.059,0.079-0.119,0.157-0.178,0.235
		c-0.315-0.23-0.612-0.492-0.948-0.688c-0.627-0.363-1.25-0.76-1.926-1.003c-0.461-0.167-1.008-0.099-1.517-0.132
		c-2.227-0.147-4.329-0.52-5.911-2.377c-0.563-0.66-1.392-1.182-2.201-1.53c-3.405-1.468-6.879-2.724-10.696-2.237
		c-2.387,0.303-4.83,0.563-6.585,2.475c-0.97,1.055-1.756,2.275-2.642,3.408c-1.98,2.525-3.002,5.285-2.336,8.557
		c0.374,1.839,1.997,4.104,3.647,4.77c-1.276-2.605-1.492-3.572-0.927-4.598c0.354,2.544,1.033,4.781,3.857,5.766
		c-2.066-2.77-2.234-3.279-1.323-3.973c-0.058,1.54,0.837,2.537,1.888,3.443c0.295,0.254,0.649,0.461,0.882,0.764
		c0.519,0.672,1.173,0.626,1.787,0.559c-0.872-1.474-1.727-2.916-2.582-4.361c0.089-0.072,0.177-0.146,0.265-0.221
		c0.187,0.129,0.437,0.217,0.551,0.394c0.765,1.18,1.486,2.389,2.252,3.567c0.619,0.953,0.997,1.063,2.261,0.729
		c-0.521-0.606-1.078-1.153-1.51-1.788c-0.415-0.611-0.84-1.273-0.653-2.35c0.266,0.32,0.431,0.439,0.487,0.6
		c0.412,1.171,1.261,2.004,2.045,2.924c0.645,0.756,1.2,0.61,2.063,0.354c-0.646-0.723-1.214-1.358-1.782-1.995
		c0.039-0.093,0.078-0.185,0.115-0.277c0.225,0.069,0.504,0.078,0.663,0.22c0.473,0.422,0.971,0.842,1.325,1.355
		c0.488,0.709,0.987,0.574,1.545,0.251c-0.402-0.668-0.794-1.317-1.185-1.97c0.1-0.069,0.2-0.141,0.3-0.211
		c0.221,0.207,0.504,0.377,0.654,0.629c0.923,1.541,1.444,1.455,3.034,0.809c-0.286-0.542-0.572-1.084-0.864-1.636
		c0.79-0.386,0.828,0.243,1.021,0.587c0.569,1.014,0.828,1.111,1.716,0.641c-0.174-0.334-0.349-0.666-0.523-1
		c0.075-0.063,0.151-0.127,0.228-0.191c0.225,0.152,0.51,0.263,0.664,0.47c0.506,0.681,1.139,0.748,1.917,0.603
		c0.885-0.166,1.788-0.267,2.688-0.311c1.062-0.052,2.126-0.012,3.264-0.012c-0.232-0.744-0.422-1.352-0.61-1.957
		c2.176,1.22,1.524,4.758-1.614,9.762c0.312,0.128,0.65,0.201,0.902,0.391c0.202,0.15,0.297,0.442,0.44,0.674
		c-0.237,0-0.499,0.064-0.707-0.014c-1.326-0.49-1.6-0.412-2.402,0.754c0.78,0.159,1.574,0.295,2.351,0.498
		c0.182,0.049,0.304,0.321,0.453,0.491c-0.23,0.037-0.462,0.114-0.69,0.101c-0.202-0.012-0.393-0.14-0.595-0.193
		c-0.96-0.258-1.915-0.277-2.887,0.158c2,0.095,3.953,0.345,5.375,1.889c1.338,1.453,2.666,2.934,3.825,4.525
		c1.175,1.615,1.625,3.512,1.389,5.57c0.575-0.398,0.972-0.892,0.796-1.598c-0.15-0.604-0.459-1.163-0.646-1.76
		c-0.075-0.239-0.012-0.522-0.012-0.786c0.11-0.007,0.22-0.013,0.329-0.019c0.377,1.06,0.754,2.117,1.185,3.324
		c0.16-0.287,0.501-0.609,0.454-0.859c-0.242-1.282-0.57-2.551-0.9-3.816c-0.076-0.291-0.278-0.548-0.422-0.82
		c1.577,1.039,1.504,2.818,2.078,4.561c0.404-0.582,1.006-1.069,0.937-1.426c-0.198-1.012-0.672-1.969-1.06-3.01
		c-0.081,0.036,0.196-0.117,0.212-0.093c0.589,0.864,1.154,1.746,1.75,2.666c2.026-1.302,0.185-2.571-0.118-3.897
		c0.235-0.021,0.464-0.039,0.708-0.058c0.362,0.972,0.715,1.917,0.989,2.654c1.717-0.173,3.346-0.479,4.97-0.455
		c1.423,0.021,2.845,0.392,4.259,0.651c0.767,0.143,1.349,0.154,1.39-0.858c0.045-1.136,0.787-1.841,1.63-2.468
		c1.322-0.983,2.763-1.688,4.422-1.863c0.497-0.053,0.692-0.251,0.741-0.795c0.088-0.973,0.628-1.74,1.428-2.303
		c0.984-0.689,2.032-1.299,2.949-2.066c0.466-0.391,0.813-1.018,1.012-1.604c0.209-0.613,0.176-1.312,0.249-1.971
		c0.781,0.989,0.112,2.033,0.219,3.038c1.592-0.463,1.675-0.563,1.686-2.163c0.001-0.328-0.035-0.66-0.078-0.988
		c-0.109-0.842-0.231-1.684-0.378-2.742c1.019,0.74,0.677,1.729,0.811,2.505c0.148,0.86,0.034,1.767,0.034,2.659
		c0.846-0.116,1.231-0.465,1.033-1.287c-0.048-0.201,0.085-0.446,0.136-0.67c0.092,0.006,0.185,0.014,0.277,0.021
		c0.08,0.431,0.159,0.86,0.252,1.359c1.111-0.511,2.216-0.956,3.262-1.513c1.085-0.578,2.134-1.23,3.163-1.908
		c1.932-1.268,3.657-2.752,4.687-4.891c0.524-1.091,0.644-2.225,0.366-3.394c-0.436,0.159-0.836,0.308-1.237,0.452
		c0.163-0.45,0.458-0.682,0.636-0.981c0.131-0.218,0.232-0.584,0.136-0.786c-0.471-1.005-1.311-1.617-2.351-2.093
		c0.119,2.92-1.031,6.158-2.216,6.247c1.221-2.08,2.474-4.146,1.005-6.719c-0.174,0.025-0.479,0.072-0.808,0.123
		c0.587,1.334,0.411,3.843-0.382,4.58c0-0.353-0.024-0.605,0.003-0.854c0.089-0.834,0.494-1.774,0.238-2.478
		c-0.593-1.621-1.339-3.325-2.848-4.281c-2.272-1.439-4.663-2.706-7.062-3.932c-1.736-0.887-3.546-1.228-5.406-0.141
		c-0.923,0.54-1.623,1.241-1.694,2.266c-0.072,1.043,0.845,1.518,1.647,1.951c0.789,0.428,1.608,0.799,2.39,1.241
		c0.206,0.116,0.318,0.396,0.474,0.603c-0.094,0.097-0.187,0.193-0.281,0.289c-1.574-0.912-3.148-1.824-4.665-2.703
		c0.028,0.131,0.016,0.492,0.172,0.752c0.473,0.791,0.986,1.561,1.532,2.302c0.379,0.515,0.416,0.487-0.069,1
		c-1.222-1.386-2.432-2.761-2.352-4.815c-0.093,0.021-0.187,0.039-0.278,0.059c0,0.82,0,1.643,0,2.461
		c-0.082-0.004-0.163-0.01-0.244-0.016c-0.334-1.156-0.396-2.31,0.268-3.652c-1.264,0.794-1.188,1.982-1.525,3.128
		c-0.868-1.042,0.269-1.892-0.006-2.778c-0.616-0.043-1.3,0.063-1.855-0.156c-3.197-1.267-5.292-3.606-6.5-6.813
		c-0.296-0.786-0.692-1.707-1.331-2.154c-1.254-0.875-2.75-1.185-4.292-0.646c-0.621,0.216-1.235,0.445-1.853,0.671
		c1.671-1.366,3.535-1.783,5.585-1.07c-0.72-1.614-2.122-1.771-3.44-1.401c-1.228,0.342-2.327,1.146-3.529,1.771
		c1.067-1.498,2.562-2.217,4.309-2.644c-2.113-1.461-3.397,0.131-4.962,1.424c0.409-1.561,1.53-1.999,2.599-2.52
		c-1.727-1.222-2.91,0.127-4.21,0.859c-0.04-0.064-0.08-0.129-0.12-0.193c0.457-0.486,0.913-0.975,1.367-1.459
		c-0.961-0.326-2.467-0.218-3.576,0.262c-2.345,1.012-4.454,5.19-3.984,7.849c0.369,2.08,1.184,3.96,2.492,5.612
		C-7.103,135.471-5.958,136.835-4.833,138.213z M-14.167,160.876c-0.345,0-0.497,0-0.646,0c-1.563-0.014-2.232,1.008-1.57,2.416
		c0.113,0.242,0.25,0.488,0.434,0.678c1.65,1.702,3.221,3.497,5.004,5.047c1.206,1.047,2.689,1.795,4.103,2.581
		c1.1,0.612,1.614,0.321,1.444-0.853c-0.172-1.192-0.47-2.418-0.987-3.496c-0.947-1.971-2.461-3.527-4.119-4.953
		C-11.633,161.326-12.87,160.792-14.167,160.876z"/>
	<path fill="#B5772A" d="M38.469,141.227c0.707,0.55,0.309,1.938-0.927,2.882C37.866,143.098,38.157,142.199,38.469,141.227z"/>
</g>
</svg>
