<?xml version="1.0" encoding="utf-8"?>
<!-- Generator: Adobe Illustrator 16.0.0, SVG Export Plug-In . SVG Version: 6.00 Build 0)  -->
<!DOCTYPE svg PUBLIC "-//W3C//DTD SVG 1.1//EN" "http://www.w3.org/Graphics/SVG/1.1/DTD/svg11.dtd">
<svg version="1.1" id="Layer_1" xmlns="http://www.w3.org/2000/svg" xmlns:xlink="http://www.w3.org/1999/xlink" x="0px" y="0px"
	 width="81.325px" height="52.997px" viewBox="-1152.629 124.746 81.325 52.997"
	 enable-background="new -1152.629 124.746 81.325 52.997" xml:space="preserve">
<g>
	<path fill-rule="evenodd" clip-rule="evenodd" fill="#FFFFFF" d="M-1152.629,146.889c0.549-2.334,1.6-4.432,3.055-6.321
		c1.496-1.944,2.81-4.131,5.366-4.88c3.345-0.981,6.737-1.204,10.117-0.188c1.546,0.463,3.072,1.024,4.554,1.666
		c0.869,0.376,1.802,0.845,2.41,1.533c1.557,1.766,3.563,2.213,5.735,2.358c0.658,0.044,1.318,0.063,2.025,0.095
		c-0.596-0.84-1.188-1.66-1.766-2.49c-1.042-1.495-1.745-3.136-2.075-4.93c-0.475-2.57,1.399-6.884,3.55-8.203
		c1.541-0.944,3.248-0.867,4.907-0.626c3.718,0.54,6.836,2.221,9.043,5.332c0.489,0.69,0.735,1.56,1.053,2.362
		c0.787,1.985,1.88,3.729,3.632,5.023c1.918,1.419,3.989,1.856,6.264,1.097c0.378-0.125,0.688-0.458,1.027-0.699
		c0.509-0.362,0.987-0.777,1.528-1.083c1.627-0.918,3.294-0.809,4.909,0.014c2.534,1.291,5.123,2.504,7.523,4.015
		c1.155,0.727,1.93,2.06,2.943,3.193c2.349-0.431,5.035,1.881,5.361,3.742c0.4,2.271,0.123,4.432-1.584,6.206
		c-3.211,3.337-7.052,5.649-11.424,7.121c-0.358,0.12-0.675,0.367-1.006,0.564c-0.126,0.074-0.239,0.253-0.356,0.252
		c-2.449-0.031-4.112,1.54-5.823,2.933c-0.467,0.38-0.711,1.144-0.853,1.776c-0.121,0.541-0.269,0.809-0.828,0.984
		c-1.331,0.418-2.665,0.867-3.926,1.457c-1.182,0.551-1.99,1.445-2.102,2.897c-0.084,1.08-0.376,1.181-1.5,0.978
		c-1.355-0.246-2.705-0.596-4.072-0.705c-2.816-0.224-5.449,0.245-7.561,2.379c-0.738,0.745-1.646,1.32-2.387,2.063
		c-1.356,1.359-2.852,1.031-4.286,0.339c-3.683-1.777-6.525-4.601-9.089-7.705c-0.51-0.616-0.858-1.496-0.941-2.292
		c-0.063-0.6,0.255-1.406,0.683-1.857c1.113-1.175,2.445-2.142,3.571-3.307c1.395-1.441,2.289-3.217,2.944-5.106
		c0.077-0.224,0.103-0.466,0.144-0.703c0.148-0.846-0.161-1.186-1.063-1.159c-4.276,0.133-8.458,0.776-12.59,1.912
		c-2.561,0.702-5.2,0.747-7.843,0.209c-2.173-0.441-4.217-1.135-6-2.479c-2.033-1.531-3.032-3.591-3.098-6.125
		c-0.007-0.247-0.114-0.491-0.174-0.735C-1152.629,147.493-1152.629,147.191-1152.629,146.889z M-1116.803,143.222
		c-0.059,0.079-0.119,0.158-0.178,0.236c-0.315-0.231-0.612-0.493-0.948-0.688c-0.627-0.363-1.25-0.76-1.926-1.003
		c-0.461-0.167-1.008-0.098-1.517-0.132c-2.227-0.147-4.329-0.519-5.911-2.377c-0.563-0.66-1.392-1.181-2.201-1.53
		c-3.405-1.468-6.879-2.724-10.696-2.238c-2.387,0.303-4.83,0.564-6.585,2.475c-0.97,1.055-1.756,2.275-2.642,3.409
		c-1.981,2.525-3.002,5.284-2.336,8.556c0.374,1.839,1.997,4.104,3.647,4.77c-1.276-2.606-1.492-3.572-0.927-4.598
		c0.354,2.544,1.033,4.781,3.857,5.766c-2.066-2.77-2.234-3.279-1.323-3.973c-0.058,1.54,0.837,2.537,1.888,3.443
		c0.295,0.255,0.649,0.462,0.882,0.764c0.519,0.672,1.173,0.626,1.787,0.558c-0.872-1.473-1.727-2.916-2.582-4.36
		c0.089-0.073,0.177-0.146,0.265-0.221c0.187,0.129,0.437,0.217,0.551,0.393c0.765,1.18,1.486,2.389,2.252,3.568
		c0.619,0.953,0.997,1.063,2.261,0.729c-0.521-0.606-1.078-1.154-1.51-1.788c-0.415-0.611-0.84-1.273-0.653-2.349
		c0.266,0.319,0.431,0.439,0.487,0.599c0.412,1.171,1.261,2.004,2.045,2.924c0.645,0.755,1.2,0.61,2.063,0.354
		c-0.646-0.724-1.214-1.359-1.782-1.996c0.039-0.092,0.078-0.185,0.115-0.277c0.225,0.069,0.504,0.078,0.663,0.22
		c0.473,0.421,0.971,0.842,1.325,1.355c0.488,0.709,0.987,0.574,1.545,0.251c-0.402-0.668-0.794-1.318-1.185-1.969
		c0.1-0.07,0.2-0.141,0.3-0.212c0.221,0.207,0.504,0.378,0.654,0.629c0.923,1.542,1.444,1.456,3.034,0.809
		c-0.286-0.542-0.572-1.084-0.864-1.636c0.79-0.385,0.828,0.243,1.02,0.587c0.569,1.013,0.828,1.112,1.716,0.64
		c-0.174-0.334-0.349-0.666-0.523-0.999c0.075-0.064,0.151-0.128,0.228-0.192c0.225,0.153,0.51,0.263,0.664,0.47
		c0.506,0.681,1.139,0.748,1.917,0.603c0.885-0.166,1.788-0.267,2.688-0.311c1.061-0.052,2.126-0.012,3.264-0.012
		c-0.232-0.744-0.422-1.351-0.61-1.957c2.176,1.22,1.524,4.758-1.614,9.762c0.311,0.128,0.65,0.201,0.902,0.39
		c0.202,0.151,0.297,0.443,0.44,0.674c-0.237,0-0.499,0.065-0.707-0.013c-1.326-0.491-1.6-0.413-2.402,0.754
		c0.78,0.159,1.574,0.295,2.351,0.498c0.182,0.048,0.304,0.321,0.453,0.491c-0.23,0.037-0.462,0.114-0.69,0.101
		c-0.202-0.012-0.393-0.14-0.595-0.194c-0.96-0.257-1.915-0.277-2.887,0.159c2,0.094,3.953,0.344,5.375,1.888
		c1.338,1.453,2.666,2.933,3.825,4.526c1.175,1.615,1.625,3.511,1.389,5.569c0.575-0.397,0.972-0.891,0.796-1.597
		c-0.15-0.603-0.459-1.163-0.646-1.759c-0.075-0.24-0.012-0.523-0.012-0.787c0.11-0.006,0.22-0.012,0.329-0.019
		c0.377,1.06,0.754,2.118,1.185,3.325c0.16-0.287,0.501-0.609,0.454-0.859c-0.242-1.283-0.57-2.552-0.9-3.817
		c-0.076-0.291-0.278-0.548-0.422-0.821c1.577,1.039,1.504,2.819,2.078,4.562c0.404-0.583,1.006-1.07,0.937-1.427
		c-0.198-1.012-0.672-1.969-1.06-3.009c-0.081,0.036,0.196-0.117,0.212-0.093c0.589,0.864,1.154,1.746,1.75,2.666
		c2.026-1.302,0.185-2.571-0.118-3.898c0.235-0.021,0.464-0.038,0.708-0.057c0.362,0.972,0.715,1.917,0.989,2.654
		c1.717-0.172,3.346-0.479,4.97-0.455c1.423,0.021,2.845,0.391,4.259,0.652c0.767,0.142,1.349,0.154,1.39-0.859
		c0.045-1.136,0.787-1.841,1.63-2.468c1.322-0.983,2.763-1.687,4.422-1.863c0.497-0.053,0.692-0.251,0.741-0.795
		c0.088-0.972,0.628-1.74,1.428-2.303c0.984-0.689,2.032-1.299,2.949-2.066c0.466-0.391,0.813-1.017,1.012-1.604
		c0.209-0.613,0.176-1.311,0.249-1.971c0.781,0.99,0.112,2.034,0.219,3.039c1.592-0.463,1.675-0.563,1.685-2.164
		c0.001-0.328-0.035-0.66-0.078-0.988c-0.109-0.841-0.231-1.683-0.378-2.741c1.019,0.739,0.677,1.728,0.811,2.504
		c0.148,0.86,0.034,1.767,0.034,2.659c0.846-0.116,1.231-0.464,1.033-1.287c-0.048-0.201,0.085-0.446,0.136-0.67
		c0.092,0.006,0.185,0.014,0.277,0.021c0.08,0.43,0.159,0.86,0.252,1.359c1.111-0.51,2.216-0.956,3.262-1.513
		c1.085-0.578,2.134-1.23,3.163-1.907c1.932-1.268,3.657-2.752,4.687-4.892c0.524-1.09,0.644-2.224,0.366-3.393
		c-0.436,0.159-0.836,0.307-1.237,0.452c0.163-0.45,0.458-0.682,0.636-0.981c0.131-0.218,0.232-0.584,0.136-0.786
		c-0.471-1.005-1.311-1.617-2.351-2.093c0.119,2.92-1.031,6.158-2.216,6.247c1.221-2.08,2.474-4.146,1.005-6.719
		c-0.174,0.026-0.479,0.073-0.808,0.123c0.587,1.335,0.411,3.843-0.382,4.581c0-0.353-0.024-0.606,0.003-0.855
		c0.089-0.834,0.494-1.775,0.238-2.477c-0.593-1.622-1.339-3.326-2.848-4.282c-2.272-1.44-4.663-2.706-7.062-3.931
		c-1.736-0.887-3.546-1.228-5.406-0.141c-0.923,0.54-1.623,1.241-1.694,2.266c-0.072,1.043,0.845,1.517,1.647,1.95
		c0.789,0.428,1.608,0.8,2.39,1.242c0.206,0.116,0.318,0.396,0.474,0.602c-0.094,0.097-0.187,0.194-0.281,0.29
		c-1.574-0.912-3.148-1.825-4.665-2.704c0.028,0.131,0.016,0.493,0.172,0.753c0.473,0.79,0.986,1.56,1.532,2.301
		c0.379,0.515,0.416,0.488-0.069,1c-1.222-1.385-2.432-2.76-2.352-4.815c-0.093,0.02-0.187,0.038-0.278,0.058
		c0,0.82,0,1.642,0,2.461c-0.082-0.004-0.163-0.01-0.244-0.015c-0.334-1.156-0.396-2.31,0.268-3.653
		c-1.264,0.794-1.188,1.982-1.525,3.128c-0.868-1.042,0.269-1.892-0.006-2.778c-0.616-0.043-1.3,0.063-1.855-0.156
		c-3.197-1.267-5.292-3.607-6.5-6.813c-0.296-0.786-0.692-1.707-1.331-2.154c-1.254-0.875-2.75-1.185-4.292-0.647
		c-0.621,0.216-1.235,0.446-1.853,0.671c1.671-1.366,3.535-1.783,5.585-1.07c-0.72-1.615-2.122-1.77-3.44-1.402
		c-1.228,0.343-2.327,1.147-3.529,1.771c1.067-1.498,2.562-2.217,4.309-2.643c-2.113-1.461-3.397,0.13-4.962,1.423
		c0.409-1.561,1.53-1.999,2.599-2.519c-1.727-1.222-2.91,0.127-4.21,0.859c-0.04-0.064-0.08-0.129-0.12-0.193
		c0.457-0.487,0.913-0.975,1.367-1.459c-0.961-0.326-2.467-0.218-3.576,0.262c-2.345,1.011-4.454,5.19-3.984,7.848
		c0.369,2.08,1.184,3.96,2.492,5.613C-1119.072,140.48-1117.928,141.844-1116.803,143.222z M-1126.137,165.885
		c-0.345,0-0.497,0.001-0.646,0c-1.564-0.014-2.232,1.008-1.57,2.417c0.113,0.242,0.25,0.488,0.434,0.677
		c1.65,1.702,3.221,3.497,5.004,5.047c1.206,1.047,2.689,1.795,4.103,2.581c1.1,0.612,1.614,0.321,1.444-0.853
		c-0.172-1.192-0.47-2.418-0.987-3.496c-0.947-1.971-2.461-3.527-4.119-4.953C-1123.603,166.335-1124.84,165.801-1126.137,165.885z"
		/>
	<path fill-rule="evenodd" clip-rule="evenodd" fill="#FFFFFF" d="M-1073.501,146.236c0.707,0.549,0.309,1.938-0.927,2.881
		C-1074.104,148.107-1073.813,147.207-1073.501,146.236z"/>
</g>
</svg>
