<?xml version="1.0" encoding="utf-8"?>
<!-- Generator: Adobe Illustrator 16.0.0, SVG Export Plug-In . SVG Version: 6.00 Build 0)  -->
<!DOCTYPE svg PUBLIC "-//W3C//DTD SVG 1.1//EN" "http://www.w3.org/Graphics/SVG/1.1/DTD/svg11.dtd">
<svg version="1.1" id="Layer_1" xmlns="http://www.w3.org/2000/svg" xmlns:xlink="http://www.w3.org/1999/xlink" x="0px" y="0px"
	 width="58.111px" height="66.014px" viewBox="-505.805 108.271 58.111 66.014"
	 enable-background="new -505.805 108.271 58.111 66.014" xml:space="preserve">
<g>
	
		<circle fill-rule="evenodd" clip-rule="evenodd" fill="none" stroke="#FFFFFF" stroke-miterlimit="10" cx="-464.607" cy="153.398" r="14.047"/>
	<path fill-rule="evenodd" clip-rule="evenodd" fill="none" stroke="#FFFFFF" stroke-miterlimit="10" d="M-478.654,160.011
		c0,6.937-5.623,12.56-12.558,12.56c-0.516,0-5.212-0.915-5.212-0.915l-2.02,1.492c0,0,0.407-2.44-0.656-2.771
		c-2.037-0.631-3.148-0.205-3.148-0.205s1.198-2.194,0.623-2.846c-0.563-0.639-2.973-1.084-2.973-1.084s1.784-1.35,1.53-2.075
		c-0.455-1.3-0.703-2.698-0.703-4.155c0-6.936,5.623-12.559,12.56-12.559C-484.276,147.453-478.654,153.076-478.654,160.011z"/>
	<path fill-rule="evenodd" clip-rule="evenodd" fill="none" stroke="#FFFFFF" stroke-miterlimit="10" d="M-474.321,131.36
		c0,9.009-5.618,21.27-5.618,21.27s-10.576-11.27-10.576-20.278c0-9.008,11.862-23.075,11.862-23.075
		S-474.321,122.351-474.321,131.36z"/>
	<path fill-rule="evenodd" clip-rule="evenodd" fill="none" stroke="#FFFFFF" stroke-miterlimit="10" d="M-462.121,135.398
		c-5.368,3.203-14.175,7.684-14.175,7.684s3.947-11.796,9.314-14.998c5.368-3.203,17.969-1.135,17.969-1.135
		S-456.753,132.196-462.121,135.398z"/>
	<polygon fill-rule="evenodd" clip-rule="evenodd" fill="none" stroke="#FFFFFF" stroke-miterlimit="10" points="-455.607,158.443 
		-457.965,158.873 -458.948,161.058 -460.085,158.949 -462.467,158.689 -460.813,156.956 -461.303,154.61 -459.143,155.648 
		-457.063,154.458 -457.382,156.833 	"/>
</g>
</svg>
